<?xml version="1.0" encoding="utf-8" standalone="no"?>
<!DOCTYPE svg PUBLIC "-//W3C//DTD SVG 1.1//EN"
  "http://www.w3.org/Graphics/SVG/1.1/DTD/svg11.dtd">
<svg xmlns:xlink="http://www.w3.org/1999/xlink" width="928.370625pt" height="365.434375pt" viewBox="0 0 928.370625 365.434375" xmlns="http://www.w3.org/2000/svg" version="1.1">
 <metadata>
  <rdf:RDF xmlns:dc="http://purl.org/dc/elements/1.1/" xmlns:cc="http://creativecommons.org/ns#" xmlns:rdf="http://www.w3.org/1999/02/22-rdf-syntax-ns#">
   <cc:Work>
    <dc:type rdf:resource="http://purl.org/dc/dcmitype/StillImage"/>
    <dc:date>2026-04-29T17:25:13.773127</dc:date>
    <dc:format>image/svg+xml</dc:format>
    <dc:creator>
     <cc:Agent>
      <dc:title>Matplotlib v3.10.1, https://matplotlib.org/</dc:title>
     </cc:Agent>
    </dc:creator>
   </cc:Work>
  </rdf:RDF>
 </metadata>
 <defs>
  <style type="text/css">*{stroke-linejoin: round; stroke-linecap: butt}</style>
 </defs>
 <g id="figure_1">
  <g id="patch_1">
   <path d="M 0 365.434375 
L 928.370625 365.434375 
L 928.370625 0 
L 0 0 
z
" style="fill: #ffffff"/>
  </g>
  <g id="axes_1">
   <g id="patch_2">
    <path d="M 34.240625 327.878125 
L 921.170625 327.878125 
L 921.170625 22.318125 
L 34.240625 22.318125 
z
" style="fill: #ffffff"/>
   </g>
   <g id="patch_3">
    <path d="M 74.555625 327.878125 
L 96.201263 327.878125 
L 96.201263 305.958438 
L 74.555625 305.958438 
z
" clip-path="url(#p5bf378a3e8)" style="fill: #3867d6"/>
   </g>
   <g id="patch_4">
    <path d="M 101.612672 327.878125 
L 123.25831 327.878125 
L 123.25831 305.779562 
L 101.612672 305.779562 
z
" clip-path="url(#p5bf378a3e8)" style="fill: #3867d6"/>
   </g>
   <g id="patch_5">
    <path d="M 128.669719 327.878125 
L 150.315357 327.878125 
L 150.315357 306.012823 
L 128.669719 306.012823 
z
" clip-path="url(#p5bf378a3e8)" style="fill: #3867d6"/>
   </g>
   <g id="patch_6">
    <path d="M 155.726766 327.878125 
L 177.372404 327.878125 
L 177.372404 258.902113 
L 155.726766 258.902113 
z
" clip-path="url(#p5bf378a3e8)" style="fill: #3867d6"/>
   </g>
   <g id="patch_7">
    <path d="M 182.783813 327.878125 
L 204.429451 327.878125 
L 204.429451 305.884306 
L 182.783813 305.884306 
z
" clip-path="url(#p5bf378a3e8)" style="fill: #3867d6"/>
   </g>
   <g id="patch_8">
    <path d="M 209.84086 327.878125 
L 231.486497 327.878125 
L 231.486497 306.00493 
L 209.84086 306.00493 
z
" clip-path="url(#p5bf378a3e8)" style="fill: #3867d6"/>
   </g>
   <g id="patch_9">
    <path d="M 236.897907 327.878125 
L 258.543544 327.878125 
L 258.543544 305.95716 
L 236.897907 305.95716 
z
" clip-path="url(#p5bf378a3e8)" style="fill: #3867d6"/>
   </g>
   <g id="patch_10">
    <path d="M 263.954954 327.878125 
L 285.600591 327.878125 
L 285.600591 305.821421 
L 263.954954 305.821421 
z
" clip-path="url(#p5bf378a3e8)" style="fill: #3867d6"/>
   </g>
   <g id="patch_11">
    <path d="M 291.012001 327.878125 
L 312.657638 327.878125 
L 312.657638 305.450345 
L 291.012001 305.450345 
z
" clip-path="url(#p5bf378a3e8)" style="fill: #3867d6"/>
   </g>
   <g id="patch_12">
    <path d="M 318.069048 327.878125 
L 339.714685 327.878125 
L 339.714685 283.020009 
L 318.069048 283.020009 
z
" clip-path="url(#p5bf378a3e8)" style="fill: #3867d6"/>
   </g>
   <g id="patch_13">
    <path d="M 345.126095 327.878125 
L 366.771732 327.878125 
L 366.771732 258.592228 
L 345.126095 258.592228 
z
" clip-path="url(#p5bf378a3e8)" style="fill: #3867d6"/>
   </g>
   <g id="patch_14">
    <path d="M 372.183142 327.878125 
L 393.828779 327.878125 
L 393.828779 281.877288 
L 372.183142 281.877288 
z
" clip-path="url(#p5bf378a3e8)" style="fill: #3867d6"/>
   </g>
   <g id="patch_15">
    <path d="M 399.240189 327.878125 
L 420.885826 327.878125 
L 420.885826 259.193465 
L 399.240189 259.193465 
z
" clip-path="url(#p5bf378a3e8)" style="fill: #3867d6"/>
   </g>
   <g id="patch_16">
    <path d="M 426.297236 327.878125 
L 447.942873 327.878125 
L 447.942873 306.032059 
L 426.297236 306.032059 
z
" clip-path="url(#p5bf378a3e8)" style="fill: #3867d6"/>
   </g>
   <g id="patch_17">
    <path d="M 453.354283 327.878125 
L 474.99992 327.878125 
L 474.99992 283.31903 
L 453.354283 283.31903 
z
" clip-path="url(#p5bf378a3e8)" style="fill: #3867d6"/>
   </g>
   <g id="patch_18">
    <path d="M 480.41133 327.878125 
L 502.056967 327.878125 
L 502.056967 305.999722 
L 480.41133 305.999722 
z
" clip-path="url(#p5bf378a3e8)" style="fill: #3867d6"/>
   </g>
   <g id="patch_19">
    <path d="M 507.468377 327.878125 
L 529.114014 327.878125 
L 529.114014 305.975437 
L 507.468377 305.975437 
z
" clip-path="url(#p5bf378a3e8)" style="fill: #3867d6"/>
   </g>
   <g id="patch_20">
    <path d="M 534.525424 327.878125 
L 556.171061 327.878125 
L 556.171061 305.814647 
L 534.525424 305.814647 
z
" clip-path="url(#p5bf378a3e8)" style="fill: #3867d6"/>
   </g>
   <g id="patch_21">
    <path d="M 561.582471 327.878125 
L 583.228108 327.878125 
L 583.228108 305.976587 
L 561.582471 305.976587 
z
" clip-path="url(#p5bf378a3e8)" style="fill: #3867d6"/>
   </g>
   <g id="patch_22">
    <path d="M 588.639518 327.878125 
L 610.285155 327.878125 
L 610.285155 283.193197 
L 588.639518 283.193197 
z
" clip-path="url(#p5bf378a3e8)" style="fill: #3867d6"/>
   </g>
   <g id="patch_23">
    <path d="M 615.696565 327.878125 
L 637.342202 327.878125 
L 637.342202 283.397859 
L 615.696565 283.397859 
z
" clip-path="url(#p5bf378a3e8)" style="fill: #3867d6"/>
   </g>
   <g id="patch_24">
    <path d="M 642.753612 327.878125 
L 664.399249 327.878125 
L 664.399249 283.006365 
L 642.753612 283.006365 
z
" clip-path="url(#p5bf378a3e8)" style="fill: #3867d6"/>
   </g>
   <g id="patch_25">
    <path d="M 669.810659 327.878125 
L 691.456296 327.878125 
L 691.456296 283.410449 
L 669.810659 283.410449 
z
" clip-path="url(#p5bf378a3e8)" style="fill: #3867d6"/>
   </g>
   <g id="patch_26">
    <path d="M 696.867706 327.878125 
L 718.513343 327.878125 
L 718.513343 305.888779 
L 696.867706 305.888779 
z
" clip-path="url(#p5bf378a3e8)" style="fill: #3867d6"/>
   </g>
   <g id="patch_27">
    <path d="M 723.924753 327.878125 
L 745.57039 327.878125 
L 745.57039 305.959524 
L 723.924753 305.959524 
z
" clip-path="url(#p5bf378a3e8)" style="fill: #3867d6"/>
   </g>
   <g id="patch_28">
    <path d="M 750.981799 327.878125 
L 772.627437 327.878125 
L 772.627437 282.835254 
L 750.981799 282.835254 
z
" clip-path="url(#p5bf378a3e8)" style="fill: #3867d6"/>
   </g>
   <g id="patch_29">
    <path d="M 778.038846 327.878125 
L 799.684484 327.878125 
L 799.684484 305.609633 
L 778.038846 305.609633 
z
" clip-path="url(#p5bf378a3e8)" style="fill: #3867d6"/>
   </g>
   <g id="patch_30">
    <path d="M 805.095893 327.878125 
L 826.741531 327.878125 
L 826.741531 305.692361 
L 805.095893 305.692361 
z
" clip-path="url(#p5bf378a3e8)" style="fill: #3867d6"/>
   </g>
   <g id="patch_31">
    <path d="M 832.15294 327.878125 
L 853.798578 327.878125 
L 853.798578 260.872206 
L 832.15294 260.872206 
z
" clip-path="url(#p5bf378a3e8)" style="fill: #3867d6"/>
   </g>
   <g id="patch_32">
    <path d="M 859.209987 327.878125 
L 880.855625 327.878125 
L 880.855625 305.939457 
L 859.209987 305.939457 
z
" clip-path="url(#p5bf378a3e8)" style="fill: #3867d6"/>
   </g>
   <g id="patch_33">
    <path d="M 74.555625 305.958438 
L 96.201263 305.958438 
L 96.201263 276.479862 
L 74.555625 276.479862 
z
" clip-path="url(#p5bf378a3e8)" style="fill: #7d4cc2"/>
   </g>
   <g id="patch_34">
    <path d="M 101.612672 305.779562 
L 123.25831 305.779562 
L 123.25831 276.283987 
L 101.612672 276.283987 
z
" clip-path="url(#p5bf378a3e8)" style="fill: #7d4cc2"/>
   </g>
   <g id="patch_35">
    <path d="M 128.669719 306.012823 
L 150.315357 306.012823 
L 150.315357 276.344827 
L 128.669719 276.344827 
z
" clip-path="url(#p5bf378a3e8)" style="fill: #7d4cc2"/>
   </g>
   <g id="patch_36">
    <path d="M 155.726766 258.902113 
L 177.372404 258.902113 
L 177.372404 163.529089 
L 155.726766 163.529089 
z
" clip-path="url(#p5bf378a3e8)" style="fill: #7d4cc2"/>
   </g>
   <g id="patch_37">
    <path d="M 182.783813 305.884306 
L 204.429451 305.884306 
L 204.429451 276.392246 
L 182.783813 276.392246 
z
" clip-path="url(#p5bf378a3e8)" style="fill: #7d4cc2"/>
   </g>
   <g id="patch_38">
    <path d="M 209.84086 306.00493 
L 231.486497 306.00493 
L 231.486497 276.559906 
L 209.84086 276.559906 
z
" clip-path="url(#p5bf378a3e8)" style="fill: #7d4cc2"/>
   </g>
   <g id="patch_39">
    <path d="M 236.897907 305.95716 
L 258.543544 305.95716 
L 258.543544 276.352815 
L 236.897907 276.352815 
z
" clip-path="url(#p5bf378a3e8)" style="fill: #7d4cc2"/>
   </g>
   <g id="patch_40">
    <path d="M 263.954954 305.821421 
L 285.600591 305.821421 
L 285.600591 275.865109 
L 263.954954 275.865109 
z
" clip-path="url(#p5bf378a3e8)" style="fill: #7d4cc2"/>
   </g>
   <g id="patch_41">
    <path d="M 291.012001 305.450345 
L 312.657638 305.450345 
L 312.657638 275.298413 
L 291.012001 275.298413 
z
" clip-path="url(#p5bf378a3e8)" style="fill: #7d4cc2"/>
   </g>
   <g id="patch_42">
    <path d="M 318.069048 283.020009 
L 339.714685 283.020009 
L 339.714685 221.656312 
L 318.069048 221.656312 
z
" clip-path="url(#p5bf378a3e8)" style="fill: #7d4cc2"/>
   </g>
   <g id="patch_43">
    <path d="M 345.126095 258.592228 
L 366.771732 258.592228 
L 366.771732 161.558772 
L 345.126095 161.558772 
z
" clip-path="url(#p5bf378a3e8)" style="fill: #7d4cc2"/>
   </g>
   <g id="patch_44">
    <path d="M 372.183142 281.877288 
L 393.828779 281.877288 
L 393.828779 220.496464 
L 372.183142 220.496464 
z
" clip-path="url(#p5bf378a3e8)" style="fill: #7d4cc2"/>
   </g>
   <g id="patch_45">
    <path d="M 399.240189 259.193465 
L 420.885826 259.193465 
L 420.885826 164.970064 
L 399.240189 164.970064 
z
" clip-path="url(#p5bf378a3e8)" style="fill: #7d4cc2"/>
   </g>
   <g id="patch_46">
    <path d="M 426.297236 306.032059 
L 447.942873 306.032059 
L 447.942873 276.32345 
L 426.297236 276.32345 
z
" clip-path="url(#p5bf378a3e8)" style="fill: #7d4cc2"/>
   </g>
   <g id="patch_47">
    <path d="M 453.354283 283.31903 
L 474.99992 283.31903 
L 474.99992 221.592405 
L 453.354283 221.592405 
z
" clip-path="url(#p5bf378a3e8)" style="fill: #7d4cc2"/>
   </g>
   <g id="patch_48">
    <path d="M 480.41133 305.999722 
L 502.056967 305.999722 
L 502.056967 276.425669 
L 480.41133 276.425669 
z
" clip-path="url(#p5bf378a3e8)" style="fill: #7d4cc2"/>
   </g>
   <g id="patch_49">
    <path d="M 507.468377 305.975437 
L 529.114014 305.975437 
L 529.114014 275.547906 
L 507.468377 275.547906 
z
" clip-path="url(#p5bf378a3e8)" style="fill: #7d4cc2"/>
   </g>
   <g id="patch_50">
    <path d="M 534.525424 305.814647 
L 556.171061 305.814647 
L 556.171061 275.932754 
L 534.525424 275.932754 
z
" clip-path="url(#p5bf378a3e8)" style="fill: #7d4cc2"/>
   </g>
   <g id="patch_51">
    <path d="M 561.582471 305.976587 
L 583.228108 305.976587 
L 583.228108 276.433466 
L 561.582471 276.433466 
z
" clip-path="url(#p5bf378a3e8)" style="fill: #7d4cc2"/>
   </g>
   <g id="patch_52">
    <path d="M 588.639518 283.193197 
L 610.285155 283.193197 
L 610.285155 222.456395 
L 588.639518 222.456395 
z
" clip-path="url(#p5bf378a3e8)" style="fill: #7d4cc2"/>
   </g>
   <g id="patch_53">
    <path d="M 615.696565 283.397859 
L 637.342202 283.397859 
L 637.342202 222.722792 
L 615.696565 222.722792 
z
" clip-path="url(#p5bf378a3e8)" style="fill: #7d4cc2"/>
   </g>
   <g id="patch_54">
    <path d="M 642.753612 283.006365 
L 664.399249 283.006365 
L 664.399249 221.075333 
L 642.753612 221.075333 
z
" clip-path="url(#p5bf378a3e8)" style="fill: #7d4cc2"/>
   </g>
   <g id="patch_55">
    <path d="M 669.810659 283.410449 
L 691.456296 283.410449 
L 691.456296 219.598314 
L 669.810659 219.598314 
z
" clip-path="url(#p5bf378a3e8)" style="fill: #7d4cc2"/>
   </g>
   <g id="patch_56">
    <path d="M 696.867706 305.888779 
L 718.513343 305.888779 
L 718.513343 275.74998 
L 696.867706 275.74998 
z
" clip-path="url(#p5bf378a3e8)" style="fill: #7d4cc2"/>
   </g>
   <g id="patch_57">
    <path d="M 723.924753 305.959524 
L 745.57039 305.959524 
L 745.57039 276.208162 
L 723.924753 276.208162 
z
" clip-path="url(#p5bf378a3e8)" style="fill: #7d4cc2"/>
   </g>
   <g id="patch_58">
    <path d="M 750.981799 282.835254 
L 772.627437 282.835254 
L 772.627437 220.954677 
L 750.981799 220.954677 
z
" clip-path="url(#p5bf378a3e8)" style="fill: #7d4cc2"/>
   </g>
   <g id="patch_59">
    <path d="M 778.038846 305.609633 
L 799.684484 305.609633 
L 799.684484 275.045917 
L 778.038846 275.045917 
z
" clip-path="url(#p5bf378a3e8)" style="fill: #7d4cc2"/>
   </g>
   <g id="patch_60">
    <path d="M 805.095893 305.692361 
L 826.741531 305.692361 
L 826.741531 275.775479 
L 805.095893 275.775479 
z
" clip-path="url(#p5bf378a3e8)" style="fill: #7d4cc2"/>
   </g>
   <g id="patch_61">
    <path d="M 832.15294 260.872206 
L 853.798578 260.872206 
L 853.798578 165.169965 
L 832.15294 165.169965 
z
" clip-path="url(#p5bf378a3e8)" style="fill: #7d4cc2"/>
   </g>
   <g id="patch_62">
    <path d="M 859.209987 305.939457 
L 880.855625 305.939457 
L 880.855625 276.014715 
L 859.209987 276.014715 
z
" clip-path="url(#p5bf378a3e8)" style="fill: #7d4cc2"/>
   </g>
   <g id="patch_63">
    <path d="M 74.555625 276.479862 
L 96.201263 276.479862 
L 96.201263 246.84219 
L 74.555625 246.84219 
z
" clip-path="url(#p5bf378a3e8)" style="fill: #c78100"/>
   </g>
   <g id="patch_64">
    <path d="M 101.612672 276.283987 
L 123.25831 276.283987 
L 123.25831 238.722741 
L 101.612672 238.722741 
z
" clip-path="url(#p5bf378a3e8)" style="fill: #c78100"/>
   </g>
   <g id="patch_65">
    <path d="M 128.669719 276.344827 
L 150.315357 276.344827 
L 150.315357 238.830712 
L 128.669719 238.830712 
z
" clip-path="url(#p5bf378a3e8)" style="fill: #c78100"/>
   </g>
   <g id="patch_66">
    <path d="M 155.726766 163.529089 
L 177.372404 163.529089 
L 177.372404 55.15182 
L 155.726766 55.15182 
z
" clip-path="url(#p5bf378a3e8)" style="fill: #c78100"/>
   </g>
   <g id="patch_67">
    <path d="M 182.783813 276.392246 
L 204.429451 276.392246 
L 204.429451 246.61433 
L 182.783813 246.61433 
z
" clip-path="url(#p5bf378a3e8)" style="fill: #c78100"/>
   </g>
   <g id="patch_68">
    <path d="M 209.84086 276.559906 
L 231.486497 276.559906 
L 231.486497 246.980932 
L 209.84086 246.980932 
z
" clip-path="url(#p5bf378a3e8)" style="fill: #c78100"/>
   </g>
   <g id="patch_69">
    <path d="M 236.897907 276.352815 
L 258.543544 276.352815 
L 258.543544 238.718683 
L 236.897907 238.718683 
z
" clip-path="url(#p5bf378a3e8)" style="fill: #c78100"/>
   </g>
   <g id="patch_70">
    <path d="M 263.954954 275.865109 
L 285.600591 275.865109 
L 285.600591 238.170872 
L 263.954954 238.170872 
z
" clip-path="url(#p5bf378a3e8)" style="fill: #c78100"/>
   </g>
   <g id="patch_71">
    <path d="M 291.012001 275.298413 
L 312.657638 275.298413 
L 312.657638 237.055823 
L 291.012001 237.055823 
z
" clip-path="url(#p5bf378a3e8)" style="fill: #c78100"/>
   </g>
   <g id="patch_72">
    <path d="M 318.069048 221.656312 
L 339.714685 221.656312 
L 339.714685 142.374145 
L 318.069048 142.374145 
z
" clip-path="url(#p5bf378a3e8)" style="fill: #c78100"/>
   </g>
   <g id="patch_73">
    <path d="M 345.126095 161.558772 
L 366.771732 161.558772 
L 366.771732 58.971733 
L 345.126095 58.971733 
z
" clip-path="url(#p5bf378a3e8)" style="fill: #c78100"/>
   </g>
   <g id="patch_74">
    <path d="M 372.183142 220.496464 
L 393.828779 220.496464 
L 393.828779 142.626418 
L 372.183142 142.626418 
z
" clip-path="url(#p5bf378a3e8)" style="fill: #c78100"/>
   </g>
   <g id="patch_75">
    <path d="M 399.240189 164.970064 
L 420.885826 164.970064 
L 420.885826 43.474253 
L 399.240189 43.474253 
z
" clip-path="url(#p5bf378a3e8)" style="fill: #c78100"/>
   </g>
   <g id="patch_76">
    <path d="M 426.297236 276.32345 
L 447.942873 276.32345 
L 447.942873 237.94282 
L 426.297236 237.94282 
z
" clip-path="url(#p5bf378a3e8)" style="fill: #c78100"/>
   </g>
   <g id="patch_77">
    <path d="M 453.354283 221.592405 
L 474.99992 221.592405 
L 474.99992 141.876309 
L 453.354283 141.876309 
z
" clip-path="url(#p5bf378a3e8)" style="fill: #c78100"/>
   </g>
   <g id="patch_78">
    <path d="M 480.41133 276.425669 
L 502.056967 276.425669 
L 502.056967 238.898997 
L 480.41133 238.898997 
z
" clip-path="url(#p5bf378a3e8)" style="fill: #c78100"/>
   </g>
   <g id="patch_79">
    <path d="M 507.468377 275.547906 
L 529.114014 275.547906 
L 529.114014 236.125305 
L 507.468377 236.125305 
z
" clip-path="url(#p5bf378a3e8)" style="fill: #c78100"/>
   </g>
   <g id="patch_80">
    <path d="M 534.525424 275.932754 
L 556.171061 275.932754 
L 556.171061 238.122654 
L 534.525424 238.122654 
z
" clip-path="url(#p5bf378a3e8)" style="fill: #c78100"/>
   </g>
   <g id="patch_81">
    <path d="M 561.582471 276.433466 
L 583.228108 276.433466 
L 583.228108 238.722422 
L 561.582471 238.722422 
z
" clip-path="url(#p5bf378a3e8)" style="fill: #c78100"/>
   </g>
   <g id="patch_82">
    <path d="M 588.639518 222.456395 
L 610.285155 222.456395 
L 610.285155 144.636868 
L 588.639518 144.636868 
z
" clip-path="url(#p5bf378a3e8)" style="fill: #c78100"/>
   </g>
   <g id="patch_83">
    <path d="M 615.696565 222.722792 
L 637.342202 222.722792 
L 637.342202 152.023559 
L 615.696565 152.023559 
z
" clip-path="url(#p5bf378a3e8)" style="fill: #c78100"/>
   </g>
   <g id="patch_84">
    <path d="M 642.753612 221.075333 
L 664.399249 221.075333 
L 664.399249 139.786806 
L 642.753612 139.786806 
z
" clip-path="url(#p5bf378a3e8)" style="fill: #c78100"/>
   </g>
   <g id="patch_85">
    <path d="M 669.810659 219.598314 
L 691.456296 219.598314 
L 691.456296 140.118355 
L 669.810659 140.118355 
z
" clip-path="url(#p5bf378a3e8)" style="fill: #c78100"/>
   </g>
   <g id="patch_86">
    <path d="M 696.867706 275.74998 
L 718.513343 275.74998 
L 718.513343 237.203128 
L 696.867706 237.203128 
z
" clip-path="url(#p5bf378a3e8)" style="fill: #c78100"/>
   </g>
   <g id="patch_87">
    <path d="M 723.924753 276.208162 
L 745.57039 276.208162 
L 745.57039 245.501517 
L 723.924753 245.501517 
z
" clip-path="url(#p5bf378a3e8)" style="fill: #c78100"/>
   </g>
   <g id="patch_88">
    <path d="M 750.981799 220.954677 
L 772.627437 220.954677 
L 772.627437 139.228354 
L 750.981799 139.228354 
z
" clip-path="url(#p5bf378a3e8)" style="fill: #c78100"/>
   </g>
   <g id="patch_89">
    <path d="M 778.038846 275.045917 
L 799.684484 275.045917 
L 799.684484 236.589206 
L 778.038846 236.589206 
z
" clip-path="url(#p5bf378a3e8)" style="fill: #c78100"/>
   </g>
   <g id="patch_90">
    <path d="M 805.095893 275.775479 
L 826.741531 275.775479 
L 826.741531 245.376579 
L 805.095893 245.376579 
z
" clip-path="url(#p5bf378a3e8)" style="fill: #c78100"/>
   </g>
   <g id="patch_91">
    <path d="M 832.15294 165.169965 
L 853.798578 165.169965 
L 853.798578 36.868601 
L 832.15294 36.868601 
z
" clip-path="url(#p5bf378a3e8)" style="fill: #c78100"/>
   </g>
   <g id="patch_92">
    <path d="M 859.209987 276.014715 
L 880.855625 276.014715 
L 880.855625 238.13288 
L 859.209987 238.13288 
z
" clip-path="url(#p5bf378a3e8)" style="fill: #c78100"/>
   </g>
   <g id="matplotlib.axis_1">
    <g id="xtick_1">
     <g id="line2d_1">
      <defs>
       <path id="ma02b4247f0" d="M 0 0 
L 0 3.5 
" style="stroke: #182230; stroke-width: 0.8"/>
      </defs>
      <g>
       <use xlink:href="#ma02b4247f0" x="85.378444" y="327.878125" style="fill: #182230; stroke: #182230; stroke-width: 0.8"/>
      </g>
     </g>
     <g id="text_1">
      <!-- 1 -->
      <g style="fill: #182230" transform="translate(82.197194 342.476562) scale(0.1 -0.1)">
       <defs>
        <path id="DejaVuSans-31" d="M 794 531 
L 1825 531 
L 1825 4091 
L 703 3866 
L 703 4441 
L 1819 4666 
L 2450 4666 
L 2450 531 
L 3481 531 
L 3481 0 
L 794 0 
L 794 531 
z
" transform="scale(0.015625)"/>
       </defs>
       <use xlink:href="#DejaVuSans-31"/>
      </g>
     </g>
    </g>
    <g id="xtick_2">
     <g id="line2d_2">
      <g>
       <use xlink:href="#ma02b4247f0" x="112.435491" y="327.878125" style="fill: #182230; stroke: #182230; stroke-width: 0.8"/>
      </g>
     </g>
     <g id="text_2">
      <!-- 2 -->
      <g style="fill: #182230" transform="translate(109.254241 342.476562) scale(0.1 -0.1)">
       <defs>
        <path id="DejaVuSans-32" d="M 1228 531 
L 3431 531 
L 3431 0 
L 469 0 
L 469 531 
Q 828 903 1448 1529 
Q 2069 2156 2228 2338 
Q 2531 2678 2651 2914 
Q 2772 3150 2772 3378 
Q 2772 3750 2511 3984 
Q 2250 4219 1831 4219 
Q 1534 4219 1204 4116 
Q 875 4013 500 3803 
L 500 4441 
Q 881 4594 1212 4672 
Q 1544 4750 1819 4750 
Q 2544 4750 2975 4387 
Q 3406 4025 3406 3419 
Q 3406 3131 3298 2873 
Q 3191 2616 2906 2266 
Q 2828 2175 2409 1742 
Q 1991 1309 1228 531 
z
" transform="scale(0.015625)"/>
       </defs>
       <use xlink:href="#DejaVuSans-32"/>
      </g>
     </g>
    </g>
    <g id="xtick_3">
     <g id="line2d_3">
      <g>
       <use xlink:href="#ma02b4247f0" x="139.492538" y="327.878125" style="fill: #182230; stroke: #182230; stroke-width: 0.8"/>
      </g>
     </g>
     <g id="text_3">
      <!-- 3 -->
      <g style="fill: #182230" transform="translate(136.311288 342.476562) scale(0.1 -0.1)">
       <defs>
        <path id="DejaVuSans-33" d="M 2597 2516 
Q 3050 2419 3304 2112 
Q 3559 1806 3559 1356 
Q 3559 666 3084 287 
Q 2609 -91 1734 -91 
Q 1441 -91 1130 -33 
Q 819 25 488 141 
L 488 750 
Q 750 597 1062 519 
Q 1375 441 1716 441 
Q 2309 441 2620 675 
Q 2931 909 2931 1356 
Q 2931 1769 2642 2001 
Q 2353 2234 1838 2234 
L 1294 2234 
L 1294 2753 
L 1863 2753 
Q 2328 2753 2575 2939 
Q 2822 3125 2822 3475 
Q 2822 3834 2567 4026 
Q 2313 4219 1838 4219 
Q 1578 4219 1281 4162 
Q 984 4106 628 3988 
L 628 4550 
Q 988 4650 1302 4700 
Q 1616 4750 1894 4750 
Q 2613 4750 3031 4423 
Q 3450 4097 3450 3541 
Q 3450 3153 3228 2886 
Q 3006 2619 2597 2516 
z
" transform="scale(0.015625)"/>
       </defs>
       <use xlink:href="#DejaVuSans-33"/>
      </g>
     </g>
    </g>
    <g id="xtick_4">
     <g id="line2d_4">
      <g>
       <use xlink:href="#ma02b4247f0" x="166.549585" y="327.878125" style="fill: #182230; stroke: #182230; stroke-width: 0.8"/>
      </g>
     </g>
     <g id="text_4">
      <!-- 4 -->
      <g style="fill: #182230" transform="translate(163.368335 342.476562) scale(0.1 -0.1)">
       <defs>
        <path id="DejaVuSans-34" d="M 2419 4116 
L 825 1625 
L 2419 1625 
L 2419 4116 
z
M 2253 4666 
L 3047 4666 
L 3047 1625 
L 3713 1625 
L 3713 1100 
L 3047 1100 
L 3047 0 
L 2419 0 
L 2419 1100 
L 313 1100 
L 313 1709 
L 2253 4666 
z
" transform="scale(0.015625)"/>
       </defs>
       <use xlink:href="#DejaVuSans-34"/>
      </g>
     </g>
    </g>
    <g id="xtick_5">
     <g id="line2d_5">
      <g>
       <use xlink:href="#ma02b4247f0" x="193.606632" y="327.878125" style="fill: #182230; stroke: #182230; stroke-width: 0.8"/>
      </g>
     </g>
     <g id="text_5">
      <!-- 5 -->
      <g style="fill: #182230" transform="translate(190.425382 342.476562) scale(0.1 -0.1)">
       <defs>
        <path id="DejaVuSans-35" d="M 691 4666 
L 3169 4666 
L 3169 4134 
L 1269 4134 
L 1269 2991 
Q 1406 3038 1543 3061 
Q 1681 3084 1819 3084 
Q 2600 3084 3056 2656 
Q 3513 2228 3513 1497 
Q 3513 744 3044 326 
Q 2575 -91 1722 -91 
Q 1428 -91 1123 -41 
Q 819 9 494 109 
L 494 744 
Q 775 591 1075 516 
Q 1375 441 1709 441 
Q 2250 441 2565 725 
Q 2881 1009 2881 1497 
Q 2881 1984 2565 2268 
Q 2250 2553 1709 2553 
Q 1456 2553 1204 2497 
Q 953 2441 691 2322 
L 691 4666 
z
" transform="scale(0.015625)"/>
       </defs>
       <use xlink:href="#DejaVuSans-35"/>
      </g>
     </g>
    </g>
    <g id="xtick_6">
     <g id="line2d_6">
      <g>
       <use xlink:href="#ma02b4247f0" x="220.663679" y="327.878125" style="fill: #182230; stroke: #182230; stroke-width: 0.8"/>
      </g>
     </g>
     <g id="text_6">
      <!-- 6 -->
      <g style="fill: #182230" transform="translate(217.482429 342.476562) scale(0.1 -0.1)">
       <defs>
        <path id="DejaVuSans-36" d="M 2113 2584 
Q 1688 2584 1439 2293 
Q 1191 2003 1191 1497 
Q 1191 994 1439 701 
Q 1688 409 2113 409 
Q 2538 409 2786 701 
Q 3034 994 3034 1497 
Q 3034 2003 2786 2293 
Q 2538 2584 2113 2584 
z
M 3366 4563 
L 3366 3988 
Q 3128 4100 2886 4159 
Q 2644 4219 2406 4219 
Q 1781 4219 1451 3797 
Q 1122 3375 1075 2522 
Q 1259 2794 1537 2939 
Q 1816 3084 2150 3084 
Q 2853 3084 3261 2657 
Q 3669 2231 3669 1497 
Q 3669 778 3244 343 
Q 2819 -91 2113 -91 
Q 1303 -91 875 529 
Q 447 1150 447 2328 
Q 447 3434 972 4092 
Q 1497 4750 2381 4750 
Q 2619 4750 2861 4703 
Q 3103 4656 3366 4563 
z
" transform="scale(0.015625)"/>
       </defs>
       <use xlink:href="#DejaVuSans-36"/>
      </g>
     </g>
    </g>
    <g id="xtick_7">
     <g id="line2d_7">
      <g>
       <use xlink:href="#ma02b4247f0" x="247.720726" y="327.878125" style="fill: #182230; stroke: #182230; stroke-width: 0.8"/>
      </g>
     </g>
     <g id="text_7">
      <!-- 7 -->
      <g style="fill: #182230" transform="translate(244.539476 342.476562) scale(0.1 -0.1)">
       <defs>
        <path id="DejaVuSans-37" d="M 525 4666 
L 3525 4666 
L 3525 4397 
L 1831 0 
L 1172 0 
L 2766 4134 
L 525 4134 
L 525 4666 
z
" transform="scale(0.015625)"/>
       </defs>
       <use xlink:href="#DejaVuSans-37"/>
      </g>
     </g>
    </g>
    <g id="xtick_8">
     <g id="line2d_8">
      <g>
       <use xlink:href="#ma02b4247f0" x="274.777773" y="327.878125" style="fill: #182230; stroke: #182230; stroke-width: 0.8"/>
      </g>
     </g>
     <g id="text_8">
      <!-- 8 -->
      <g style="fill: #182230" transform="translate(271.596523 342.476562) scale(0.1 -0.1)">
       <defs>
        <path id="DejaVuSans-38" d="M 2034 2216 
Q 1584 2216 1326 1975 
Q 1069 1734 1069 1313 
Q 1069 891 1326 650 
Q 1584 409 2034 409 
Q 2484 409 2743 651 
Q 3003 894 3003 1313 
Q 3003 1734 2745 1975 
Q 2488 2216 2034 2216 
z
M 1403 2484 
Q 997 2584 770 2862 
Q 544 3141 544 3541 
Q 544 4100 942 4425 
Q 1341 4750 2034 4750 
Q 2731 4750 3128 4425 
Q 3525 4100 3525 3541 
Q 3525 3141 3298 2862 
Q 3072 2584 2669 2484 
Q 3125 2378 3379 2068 
Q 3634 1759 3634 1313 
Q 3634 634 3220 271 
Q 2806 -91 2034 -91 
Q 1263 -91 848 271 
Q 434 634 434 1313 
Q 434 1759 690 2068 
Q 947 2378 1403 2484 
z
M 1172 3481 
Q 1172 3119 1398 2916 
Q 1625 2713 2034 2713 
Q 2441 2713 2670 2916 
Q 2900 3119 2900 3481 
Q 2900 3844 2670 4047 
Q 2441 4250 2034 4250 
Q 1625 4250 1398 4047 
Q 1172 3844 1172 3481 
z
" transform="scale(0.015625)"/>
       </defs>
       <use xlink:href="#DejaVuSans-38"/>
      </g>
     </g>
    </g>
    <g id="xtick_9">
     <g id="line2d_9">
      <g>
       <use xlink:href="#ma02b4247f0" x="301.83482" y="327.878125" style="fill: #182230; stroke: #182230; stroke-width: 0.8"/>
      </g>
     </g>
     <g id="text_9">
      <!-- 9 -->
      <g style="fill: #182230" transform="translate(298.65357 342.476562) scale(0.1 -0.1)">
       <defs>
        <path id="DejaVuSans-39" d="M 703 97 
L 703 672 
Q 941 559 1184 500 
Q 1428 441 1663 441 
Q 2288 441 2617 861 
Q 2947 1281 2994 2138 
Q 2813 1869 2534 1725 
Q 2256 1581 1919 1581 
Q 1219 1581 811 2004 
Q 403 2428 403 3163 
Q 403 3881 828 4315 
Q 1253 4750 1959 4750 
Q 2769 4750 3195 4129 
Q 3622 3509 3622 2328 
Q 3622 1225 3098 567 
Q 2575 -91 1691 -91 
Q 1453 -91 1209 -44 
Q 966 3 703 97 
z
M 1959 2075 
Q 2384 2075 2632 2365 
Q 2881 2656 2881 3163 
Q 2881 3666 2632 3958 
Q 2384 4250 1959 4250 
Q 1534 4250 1286 3958 
Q 1038 3666 1038 3163 
Q 1038 2656 1286 2365 
Q 1534 2075 1959 2075 
z
" transform="scale(0.015625)"/>
       </defs>
       <use xlink:href="#DejaVuSans-39"/>
      </g>
     </g>
    </g>
    <g id="xtick_10">
     <g id="line2d_10">
      <g>
       <use xlink:href="#ma02b4247f0" x="328.891867" y="327.878125" style="fill: #182230; stroke: #182230; stroke-width: 0.8"/>
      </g>
     </g>
     <g id="text_10">
      <!-- 10 -->
      <g style="fill: #182230" transform="translate(322.529367 342.476562) scale(0.1 -0.1)">
       <defs>
        <path id="DejaVuSans-30" d="M 2034 4250 
Q 1547 4250 1301 3770 
Q 1056 3291 1056 2328 
Q 1056 1369 1301 889 
Q 1547 409 2034 409 
Q 2525 409 2770 889 
Q 3016 1369 3016 2328 
Q 3016 3291 2770 3770 
Q 2525 4250 2034 4250 
z
M 2034 4750 
Q 2819 4750 3233 4129 
Q 3647 3509 3647 2328 
Q 3647 1150 3233 529 
Q 2819 -91 2034 -91 
Q 1250 -91 836 529 
Q 422 1150 422 2328 
Q 422 3509 836 4129 
Q 1250 4750 2034 4750 
z
" transform="scale(0.015625)"/>
       </defs>
       <use xlink:href="#DejaVuSans-31"/>
       <use xlink:href="#DejaVuSans-30" transform="translate(63.623047 0)"/>
      </g>
     </g>
    </g>
    <g id="xtick_11">
     <g id="line2d_11">
      <g>
       <use xlink:href="#ma02b4247f0" x="355.948914" y="327.878125" style="fill: #182230; stroke: #182230; stroke-width: 0.8"/>
      </g>
     </g>
     <g id="text_11">
      <!-- 11 -->
      <g style="fill: #182230" transform="translate(349.586414 342.476562) scale(0.1 -0.1)">
       <use xlink:href="#DejaVuSans-31"/>
       <use xlink:href="#DejaVuSans-31" transform="translate(63.623047 0)"/>
      </g>
     </g>
    </g>
    <g id="xtick_12">
     <g id="line2d_12">
      <g>
       <use xlink:href="#ma02b4247f0" x="383.005961" y="327.878125" style="fill: #182230; stroke: #182230; stroke-width: 0.8"/>
      </g>
     </g>
     <g id="text_12">
      <!-- 12 -->
      <g style="fill: #182230" transform="translate(376.643461 342.476562) scale(0.1 -0.1)">
       <use xlink:href="#DejaVuSans-31"/>
       <use xlink:href="#DejaVuSans-32" transform="translate(63.623047 0)"/>
      </g>
     </g>
    </g>
    <g id="xtick_13">
     <g id="line2d_13">
      <g>
       <use xlink:href="#ma02b4247f0" x="410.063008" y="327.878125" style="fill: #182230; stroke: #182230; stroke-width: 0.8"/>
      </g>
     </g>
     <g id="text_13">
      <!-- 13 -->
      <g style="fill: #182230" transform="translate(403.700508 342.476562) scale(0.1 -0.1)">
       <use xlink:href="#DejaVuSans-31"/>
       <use xlink:href="#DejaVuSans-33" transform="translate(63.623047 0)"/>
      </g>
     </g>
    </g>
    <g id="xtick_14">
     <g id="line2d_14">
      <g>
       <use xlink:href="#ma02b4247f0" x="437.120055" y="327.878125" style="fill: #182230; stroke: #182230; stroke-width: 0.8"/>
      </g>
     </g>
     <g id="text_14">
      <!-- 14 -->
      <g style="fill: #182230" transform="translate(430.757555 342.476562) scale(0.1 -0.1)">
       <use xlink:href="#DejaVuSans-31"/>
       <use xlink:href="#DejaVuSans-34" transform="translate(63.623047 0)"/>
      </g>
     </g>
    </g>
    <g id="xtick_15">
     <g id="line2d_15">
      <g>
       <use xlink:href="#ma02b4247f0" x="464.177102" y="327.878125" style="fill: #182230; stroke: #182230; stroke-width: 0.8"/>
      </g>
     </g>
     <g id="text_15">
      <!-- 15 -->
      <g style="fill: #182230" transform="translate(457.814602 342.476562) scale(0.1 -0.1)">
       <use xlink:href="#DejaVuSans-31"/>
       <use xlink:href="#DejaVuSans-35" transform="translate(63.623047 0)"/>
      </g>
     </g>
    </g>
    <g id="xtick_16">
     <g id="line2d_16">
      <g>
       <use xlink:href="#ma02b4247f0" x="491.234148" y="327.878125" style="fill: #182230; stroke: #182230; stroke-width: 0.8"/>
      </g>
     </g>
     <g id="text_16">
      <!-- 16 -->
      <g style="fill: #182230" transform="translate(484.871648 342.476562) scale(0.1 -0.1)">
       <use xlink:href="#DejaVuSans-31"/>
       <use xlink:href="#DejaVuSans-36" transform="translate(63.623047 0)"/>
      </g>
     </g>
    </g>
    <g id="xtick_17">
     <g id="line2d_17">
      <g>
       <use xlink:href="#ma02b4247f0" x="518.291195" y="327.878125" style="fill: #182230; stroke: #182230; stroke-width: 0.8"/>
      </g>
     </g>
     <g id="text_17">
      <!-- 17 -->
      <g style="fill: #182230" transform="translate(511.928695 342.476562) scale(0.1 -0.1)">
       <use xlink:href="#DejaVuSans-31"/>
       <use xlink:href="#DejaVuSans-37" transform="translate(63.623047 0)"/>
      </g>
     </g>
    </g>
    <g id="xtick_18">
     <g id="line2d_18">
      <g>
       <use xlink:href="#ma02b4247f0" x="545.348242" y="327.878125" style="fill: #182230; stroke: #182230; stroke-width: 0.8"/>
      </g>
     </g>
     <g id="text_18">
      <!-- 18 -->
      <g style="fill: #182230" transform="translate(538.985742 342.476562) scale(0.1 -0.1)">
       <use xlink:href="#DejaVuSans-31"/>
       <use xlink:href="#DejaVuSans-38" transform="translate(63.623047 0)"/>
      </g>
     </g>
    </g>
    <g id="xtick_19">
     <g id="line2d_19">
      <g>
       <use xlink:href="#ma02b4247f0" x="572.405289" y="327.878125" style="fill: #182230; stroke: #182230; stroke-width: 0.8"/>
      </g>
     </g>
     <g id="text_19">
      <!-- 19 -->
      <g style="fill: #182230" transform="translate(566.042789 342.476562) scale(0.1 -0.1)">
       <use xlink:href="#DejaVuSans-31"/>
       <use xlink:href="#DejaVuSans-39" transform="translate(63.623047 0)"/>
      </g>
     </g>
    </g>
    <g id="xtick_20">
     <g id="line2d_20">
      <g>
       <use xlink:href="#ma02b4247f0" x="599.462336" y="327.878125" style="fill: #182230; stroke: #182230; stroke-width: 0.8"/>
      </g>
     </g>
     <g id="text_20">
      <!-- 20 -->
      <g style="fill: #182230" transform="translate(593.099836 342.476562) scale(0.1 -0.1)">
       <use xlink:href="#DejaVuSans-32"/>
       <use xlink:href="#DejaVuSans-30" transform="translate(63.623047 0)"/>
      </g>
     </g>
    </g>
    <g id="xtick_21">
     <g id="line2d_21">
      <g>
       <use xlink:href="#ma02b4247f0" x="626.519383" y="327.878125" style="fill: #182230; stroke: #182230; stroke-width: 0.8"/>
      </g>
     </g>
     <g id="text_21">
      <!-- 21 -->
      <g style="fill: #182230" transform="translate(620.156883 342.476562) scale(0.1 -0.1)">
       <use xlink:href="#DejaVuSans-32"/>
       <use xlink:href="#DejaVuSans-31" transform="translate(63.623047 0)"/>
      </g>
     </g>
    </g>
    <g id="xtick_22">
     <g id="line2d_22">
      <g>
       <use xlink:href="#ma02b4247f0" x="653.57643" y="327.878125" style="fill: #182230; stroke: #182230; stroke-width: 0.8"/>
      </g>
     </g>
     <g id="text_22">
      <!-- 22 -->
      <g style="fill: #182230" transform="translate(647.21393 342.476562) scale(0.1 -0.1)">
       <use xlink:href="#DejaVuSans-32"/>
       <use xlink:href="#DejaVuSans-32" transform="translate(63.623047 0)"/>
      </g>
     </g>
    </g>
    <g id="xtick_23">
     <g id="line2d_23">
      <g>
       <use xlink:href="#ma02b4247f0" x="680.633477" y="327.878125" style="fill: #182230; stroke: #182230; stroke-width: 0.8"/>
      </g>
     </g>
     <g id="text_23">
      <!-- 23 -->
      <g style="fill: #182230" transform="translate(674.270977 342.476562) scale(0.1 -0.1)">
       <use xlink:href="#DejaVuSans-32"/>
       <use xlink:href="#DejaVuSans-33" transform="translate(63.623047 0)"/>
      </g>
     </g>
    </g>
    <g id="xtick_24">
     <g id="line2d_24">
      <g>
       <use xlink:href="#ma02b4247f0" x="707.690524" y="327.878125" style="fill: #182230; stroke: #182230; stroke-width: 0.8"/>
      </g>
     </g>
     <g id="text_24">
      <!-- 24 -->
      <g style="fill: #182230" transform="translate(701.328024 342.476562) scale(0.1 -0.1)">
       <use xlink:href="#DejaVuSans-32"/>
       <use xlink:href="#DejaVuSans-34" transform="translate(63.623047 0)"/>
      </g>
     </g>
    </g>
    <g id="xtick_25">
     <g id="line2d_25">
      <g>
       <use xlink:href="#ma02b4247f0" x="734.747571" y="327.878125" style="fill: #182230; stroke: #182230; stroke-width: 0.8"/>
      </g>
     </g>
     <g id="text_25">
      <!-- 25 -->
      <g style="fill: #182230" transform="translate(728.385071 342.476562) scale(0.1 -0.1)">
       <use xlink:href="#DejaVuSans-32"/>
       <use xlink:href="#DejaVuSans-35" transform="translate(63.623047 0)"/>
      </g>
     </g>
    </g>
    <g id="xtick_26">
     <g id="line2d_26">
      <g>
       <use xlink:href="#ma02b4247f0" x="761.804618" y="327.878125" style="fill: #182230; stroke: #182230; stroke-width: 0.8"/>
      </g>
     </g>
     <g id="text_26">
      <!-- 26 -->
      <g style="fill: #182230" transform="translate(755.442118 342.476562) scale(0.1 -0.1)">
       <use xlink:href="#DejaVuSans-32"/>
       <use xlink:href="#DejaVuSans-36" transform="translate(63.623047 0)"/>
      </g>
     </g>
    </g>
    <g id="xtick_27">
     <g id="line2d_27">
      <g>
       <use xlink:href="#ma02b4247f0" x="788.861665" y="327.878125" style="fill: #182230; stroke: #182230; stroke-width: 0.8"/>
      </g>
     </g>
     <g id="text_27">
      <!-- 27 -->
      <g style="fill: #182230" transform="translate(782.499165 342.476562) scale(0.1 -0.1)">
       <use xlink:href="#DejaVuSans-32"/>
       <use xlink:href="#DejaVuSans-37" transform="translate(63.623047 0)"/>
      </g>
     </g>
    </g>
    <g id="xtick_28">
     <g id="line2d_28">
      <g>
       <use xlink:href="#ma02b4247f0" x="815.918712" y="327.878125" style="fill: #182230; stroke: #182230; stroke-width: 0.8"/>
      </g>
     </g>
     <g id="text_28">
      <!-- 28 -->
      <g style="fill: #182230" transform="translate(809.556212 342.476562) scale(0.1 -0.1)">
       <use xlink:href="#DejaVuSans-32"/>
       <use xlink:href="#DejaVuSans-38" transform="translate(63.623047 0)"/>
      </g>
     </g>
    </g>
    <g id="xtick_29">
     <g id="line2d_29">
      <g>
       <use xlink:href="#ma02b4247f0" x="842.975759" y="327.878125" style="fill: #182230; stroke: #182230; stroke-width: 0.8"/>
      </g>
     </g>
     <g id="text_29">
      <!-- 29 -->
      <g style="fill: #182230" transform="translate(836.613259 342.476562) scale(0.1 -0.1)">
       <use xlink:href="#DejaVuSans-32"/>
       <use xlink:href="#DejaVuSans-39" transform="translate(63.623047 0)"/>
      </g>
     </g>
    </g>
    <g id="xtick_30">
     <g id="line2d_30">
      <g>
       <use xlink:href="#ma02b4247f0" x="870.032806" y="327.878125" style="fill: #182230; stroke: #182230; stroke-width: 0.8"/>
      </g>
     </g>
     <g id="text_30">
      <!-- 30 -->
      <g style="fill: #182230" transform="translate(863.670306 342.476562) scale(0.1 -0.1)">
       <use xlink:href="#DejaVuSans-33"/>
       <use xlink:href="#DejaVuSans-30" transform="translate(63.623047 0)"/>
      </g>
     </g>
    </g>
    <g id="text_31">
     <!-- Question -->
     <g style="fill: #182230" transform="translate(455.342344 356.154687) scale(0.1 -0.1)">
      <defs>
       <path id="DejaVuSans-51" d="M 2522 4238 
Q 1834 4238 1429 3725 
Q 1025 3213 1025 2328 
Q 1025 1447 1429 934 
Q 1834 422 2522 422 
Q 3209 422 3611 934 
Q 4013 1447 4013 2328 
Q 4013 3213 3611 3725 
Q 3209 4238 2522 4238 
z
M 3406 84 
L 4238 -825 
L 3475 -825 
L 2784 -78 
Q 2681 -84 2626 -87 
Q 2572 -91 2522 -91 
Q 1538 -91 948 567 
Q 359 1225 359 2328 
Q 359 3434 948 4092 
Q 1538 4750 2522 4750 
Q 3503 4750 4090 4092 
Q 4678 3434 4678 2328 
Q 4678 1516 4351 937 
Q 4025 359 3406 84 
z
" transform="scale(0.015625)"/>
       <path id="DejaVuSans-75" d="M 544 1381 
L 544 3500 
L 1119 3500 
L 1119 1403 
Q 1119 906 1312 657 
Q 1506 409 1894 409 
Q 2359 409 2629 706 
Q 2900 1003 2900 1516 
L 2900 3500 
L 3475 3500 
L 3475 0 
L 2900 0 
L 2900 538 
Q 2691 219 2414 64 
Q 2138 -91 1772 -91 
Q 1169 -91 856 284 
Q 544 659 544 1381 
z
M 1991 3584 
L 1991 3584 
z
" transform="scale(0.015625)"/>
       <path id="DejaVuSans-65" d="M 3597 1894 
L 3597 1613 
L 953 1613 
Q 991 1019 1311 708 
Q 1631 397 2203 397 
Q 2534 397 2845 478 
Q 3156 559 3463 722 
L 3463 178 
Q 3153 47 2828 -22 
Q 2503 -91 2169 -91 
Q 1331 -91 842 396 
Q 353 884 353 1716 
Q 353 2575 817 3079 
Q 1281 3584 2069 3584 
Q 2775 3584 3186 3129 
Q 3597 2675 3597 1894 
z
M 3022 2063 
Q 3016 2534 2758 2815 
Q 2500 3097 2075 3097 
Q 1594 3097 1305 2825 
Q 1016 2553 972 2059 
L 3022 2063 
z
" transform="scale(0.015625)"/>
       <path id="DejaVuSans-73" d="M 2834 3397 
L 2834 2853 
Q 2591 2978 2328 3040 
Q 2066 3103 1784 3103 
Q 1356 3103 1142 2972 
Q 928 2841 928 2578 
Q 928 2378 1081 2264 
Q 1234 2150 1697 2047 
L 1894 2003 
Q 2506 1872 2764 1633 
Q 3022 1394 3022 966 
Q 3022 478 2636 193 
Q 2250 -91 1575 -91 
Q 1294 -91 989 -36 
Q 684 19 347 128 
L 347 722 
Q 666 556 975 473 
Q 1284 391 1588 391 
Q 1994 391 2212 530 
Q 2431 669 2431 922 
Q 2431 1156 2273 1281 
Q 2116 1406 1581 1522 
L 1381 1569 
Q 847 1681 609 1914 
Q 372 2147 372 2553 
Q 372 3047 722 3315 
Q 1072 3584 1716 3584 
Q 2034 3584 2315 3537 
Q 2597 3491 2834 3397 
z
" transform="scale(0.015625)"/>
       <path id="DejaVuSans-74" d="M 1172 4494 
L 1172 3500 
L 2356 3500 
L 2356 3053 
L 1172 3053 
L 1172 1153 
Q 1172 725 1289 603 
Q 1406 481 1766 481 
L 2356 481 
L 2356 0 
L 1766 0 
Q 1100 0 847 248 
Q 594 497 594 1153 
L 594 3053 
L 172 3053 
L 172 3500 
L 594 3500 
L 594 4494 
L 1172 4494 
z
" transform="scale(0.015625)"/>
       <path id="DejaVuSans-69" d="M 603 3500 
L 1178 3500 
L 1178 0 
L 603 0 
L 603 3500 
z
M 603 4863 
L 1178 4863 
L 1178 4134 
L 603 4134 
L 603 4863 
z
" transform="scale(0.015625)"/>
       <path id="DejaVuSans-6f" d="M 1959 3097 
Q 1497 3097 1228 2736 
Q 959 2375 959 1747 
Q 959 1119 1226 758 
Q 1494 397 1959 397 
Q 2419 397 2687 759 
Q 2956 1122 2956 1747 
Q 2956 2369 2687 2733 
Q 2419 3097 1959 3097 
z
M 1959 3584 
Q 2709 3584 3137 3096 
Q 3566 2609 3566 1747 
Q 3566 888 3137 398 
Q 2709 -91 1959 -91 
Q 1206 -91 779 398 
Q 353 888 353 1747 
Q 353 2609 779 3096 
Q 1206 3584 1959 3584 
z
" transform="scale(0.015625)"/>
       <path id="DejaVuSans-6e" d="M 3513 2113 
L 3513 0 
L 2938 0 
L 2938 2094 
Q 2938 2591 2744 2837 
Q 2550 3084 2163 3084 
Q 1697 3084 1428 2787 
Q 1159 2491 1159 1978 
L 1159 0 
L 581 0 
L 581 3500 
L 1159 3500 
L 1159 2956 
Q 1366 3272 1645 3428 
Q 1925 3584 2291 3584 
Q 2894 3584 3203 3211 
Q 3513 2838 3513 2113 
z
" transform="scale(0.015625)"/>
      </defs>
      <use xlink:href="#DejaVuSans-51"/>
      <use xlink:href="#DejaVuSans-75" transform="translate(78.710938 0)"/>
      <use xlink:href="#DejaVuSans-65" transform="translate(142.089844 0)"/>
      <use xlink:href="#DejaVuSans-73" transform="translate(203.613281 0)"/>
      <use xlink:href="#DejaVuSans-74" transform="translate(255.712891 0)"/>
      <use xlink:href="#DejaVuSans-69" transform="translate(294.921875 0)"/>
      <use xlink:href="#DejaVuSans-6f" transform="translate(322.705078 0)"/>
      <use xlink:href="#DejaVuSans-6e" transform="translate(383.886719 0)"/>
     </g>
    </g>
   </g>
   <g id="matplotlib.axis_2">
    <g id="ytick_1">
     <g id="line2d_31">
      <path d="M 34.240625 327.878125 
L 921.170625 327.878125 
" clip-path="url(#p5bf378a3e8)" style="fill: none; stroke: #e2e8f0; stroke-width: 0.8; stroke-linecap: square"/>
     </g>
     <g id="line2d_32">
      <defs>
       <path id="me1676a7601" d="M 0 0 
L -3.5 0 
" style="stroke: #182230; stroke-width: 0.8"/>
      </defs>
      <g>
       <use xlink:href="#me1676a7601" x="34.240625" y="327.878125" style="fill: #182230; stroke: #182230; stroke-width: 0.8"/>
      </g>
     </g>
     <g id="text_32">
      <!-- 0 -->
      <g style="fill: #182230" transform="translate(20.878125 331.677344) scale(0.1 -0.1)">
       <use xlink:href="#DejaVuSans-30"/>
      </g>
     </g>
    </g>
    <g id="ytick_2">
     <g id="line2d_33">
      <path d="M 34.240625 263.971121 
L 921.170625 263.971121 
" clip-path="url(#p5bf378a3e8)" style="fill: none; stroke: #e2e8f0; stroke-width: 0.8; stroke-linecap: square"/>
     </g>
     <g id="line2d_34">
      <g>
       <use xlink:href="#me1676a7601" x="34.240625" y="263.971121" style="fill: #182230; stroke: #182230; stroke-width: 0.8"/>
      </g>
     </g>
     <g id="text_33">
      <!-- 2 -->
      <g style="fill: #182230" transform="translate(20.878125 267.770339) scale(0.1 -0.1)">
       <use xlink:href="#DejaVuSans-32"/>
      </g>
     </g>
    </g>
    <g id="ytick_3">
     <g id="line2d_35">
      <path d="M 34.240625 200.064116 
L 921.170625 200.064116 
" clip-path="url(#p5bf378a3e8)" style="fill: none; stroke: #e2e8f0; stroke-width: 0.8; stroke-linecap: square"/>
     </g>
     <g id="line2d_36">
      <g>
       <use xlink:href="#me1676a7601" x="34.240625" y="200.064116" style="fill: #182230; stroke: #182230; stroke-width: 0.8"/>
      </g>
     </g>
     <g id="text_34">
      <!-- 4 -->
      <g style="fill: #182230" transform="translate(20.878125 203.863335) scale(0.1 -0.1)">
       <use xlink:href="#DejaVuSans-34"/>
      </g>
     </g>
    </g>
    <g id="ytick_4">
     <g id="line2d_37">
      <path d="M 34.240625 136.157112 
L 921.170625 136.157112 
" clip-path="url(#p5bf378a3e8)" style="fill: none; stroke: #e2e8f0; stroke-width: 0.8; stroke-linecap: square"/>
     </g>
     <g id="line2d_38">
      <g>
       <use xlink:href="#me1676a7601" x="34.240625" y="136.157112" style="fill: #182230; stroke: #182230; stroke-width: 0.8"/>
      </g>
     </g>
     <g id="text_35">
      <!-- 6 -->
      <g style="fill: #182230" transform="translate(20.878125 139.95633) scale(0.1 -0.1)">
       <use xlink:href="#DejaVuSans-36"/>
      </g>
     </g>
    </g>
    <g id="ytick_5">
     <g id="line2d_39">
      <path d="M 34.240625 72.250107 
L 921.170625 72.250107 
" clip-path="url(#p5bf378a3e8)" style="fill: none; stroke: #e2e8f0; stroke-width: 0.8; stroke-linecap: square"/>
     </g>
     <g id="line2d_40">
      <g>
       <use xlink:href="#me1676a7601" x="34.240625" y="72.250107" style="fill: #182230; stroke: #182230; stroke-width: 0.8"/>
      </g>
     </g>
     <g id="text_36">
      <!-- 8 -->
      <g style="fill: #182230" transform="translate(20.878125 76.049326) scale(0.1 -0.1)">
       <use xlink:href="#DejaVuSans-38"/>
      </g>
     </g>
    </g>
    <g id="text_37">
     <!-- Role tokens (millions) -->
     <g style="fill: #182230" transform="translate(14.798438 228.795) rotate(-90) scale(0.1 -0.1)">
      <defs>
       <path id="DejaVuSans-52" d="M 2841 2188 
Q 3044 2119 3236 1894 
Q 3428 1669 3622 1275 
L 4263 0 
L 3584 0 
L 2988 1197 
Q 2756 1666 2539 1819 
Q 2322 1972 1947 1972 
L 1259 1972 
L 1259 0 
L 628 0 
L 628 4666 
L 2053 4666 
Q 2853 4666 3247 4331 
Q 3641 3997 3641 3322 
Q 3641 2881 3436 2590 
Q 3231 2300 2841 2188 
z
M 1259 4147 
L 1259 2491 
L 2053 2491 
Q 2509 2491 2742 2702 
Q 2975 2913 2975 3322 
Q 2975 3731 2742 3939 
Q 2509 4147 2053 4147 
L 1259 4147 
z
" transform="scale(0.015625)"/>
       <path id="DejaVuSans-6c" d="M 603 4863 
L 1178 4863 
L 1178 0 
L 603 0 
L 603 4863 
z
" transform="scale(0.015625)"/>
       <path id="DejaVuSans-20" transform="scale(0.015625)"/>
       <path id="DejaVuSans-6b" d="M 581 4863 
L 1159 4863 
L 1159 1991 
L 2875 3500 
L 3609 3500 
L 1753 1863 
L 3688 0 
L 2938 0 
L 1159 1709 
L 1159 0 
L 581 0 
L 581 4863 
z
" transform="scale(0.015625)"/>
       <path id="DejaVuSans-28" d="M 1984 4856 
Q 1566 4138 1362 3434 
Q 1159 2731 1159 2009 
Q 1159 1288 1364 580 
Q 1569 -128 1984 -844 
L 1484 -844 
Q 1016 -109 783 600 
Q 550 1309 550 2009 
Q 550 2706 781 3412 
Q 1013 4119 1484 4856 
L 1984 4856 
z
" transform="scale(0.015625)"/>
       <path id="DejaVuSans-6d" d="M 3328 2828 
Q 3544 3216 3844 3400 
Q 4144 3584 4550 3584 
Q 5097 3584 5394 3201 
Q 5691 2819 5691 2113 
L 5691 0 
L 5113 0 
L 5113 2094 
Q 5113 2597 4934 2840 
Q 4756 3084 4391 3084 
Q 3944 3084 3684 2787 
Q 3425 2491 3425 1978 
L 3425 0 
L 2847 0 
L 2847 2094 
Q 2847 2600 2669 2842 
Q 2491 3084 2119 3084 
Q 1678 3084 1418 2786 
Q 1159 2488 1159 1978 
L 1159 0 
L 581 0 
L 581 3500 
L 1159 3500 
L 1159 2956 
Q 1356 3278 1631 3431 
Q 1906 3584 2284 3584 
Q 2666 3584 2933 3390 
Q 3200 3197 3328 2828 
z
" transform="scale(0.015625)"/>
       <path id="DejaVuSans-29" d="M 513 4856 
L 1013 4856 
Q 1481 4119 1714 3412 
Q 1947 2706 1947 2009 
Q 1947 1309 1714 600 
Q 1481 -109 1013 -844 
L 513 -844 
Q 928 -128 1133 580 
Q 1338 1288 1338 2009 
Q 1338 2731 1133 3434 
Q 928 4138 513 4856 
z
" transform="scale(0.015625)"/>
      </defs>
      <use xlink:href="#DejaVuSans-52"/>
      <use xlink:href="#DejaVuSans-6f" transform="translate(64.982422 0)"/>
      <use xlink:href="#DejaVuSans-6c" transform="translate(126.164062 0)"/>
      <use xlink:href="#DejaVuSans-65" transform="translate(153.947266 0)"/>
      <use xlink:href="#DejaVuSans-20" transform="translate(215.470703 0)"/>
      <use xlink:href="#DejaVuSans-74" transform="translate(247.257812 0)"/>
      <use xlink:href="#DejaVuSans-6f" transform="translate(286.466797 0)"/>
      <use xlink:href="#DejaVuSans-6b" transform="translate(347.648438 0)"/>
      <use xlink:href="#DejaVuSans-65" transform="translate(401.933594 0)"/>
      <use xlink:href="#DejaVuSans-6e" transform="translate(463.457031 0)"/>
      <use xlink:href="#DejaVuSans-73" transform="translate(526.835938 0)"/>
      <use xlink:href="#DejaVuSans-20" transform="translate(578.935547 0)"/>
      <use xlink:href="#DejaVuSans-28" transform="translate(610.722656 0)"/>
      <use xlink:href="#DejaVuSans-6d" transform="translate(649.736328 0)"/>
      <use xlink:href="#DejaVuSans-69" transform="translate(747.148438 0)"/>
      <use xlink:href="#DejaVuSans-6c" transform="translate(774.931641 0)"/>
      <use xlink:href="#DejaVuSans-6c" transform="translate(802.714844 0)"/>
      <use xlink:href="#DejaVuSans-69" transform="translate(830.498047 0)"/>
      <use xlink:href="#DejaVuSans-6f" transform="translate(858.28125 0)"/>
      <use xlink:href="#DejaVuSans-6e" transform="translate(919.462891 0)"/>
      <use xlink:href="#DejaVuSans-73" transform="translate(982.841797 0)"/>
      <use xlink:href="#DejaVuSans-29" transform="translate(1034.941406 0)"/>
     </g>
    </g>
   </g>
   <g id="patch_93">
    <path d="M 34.240625 327.878125 
L 34.240625 22.318125 
" style="fill: none; stroke: #cbd5e1; stroke-width: 0.8; stroke-linejoin: miter; stroke-linecap: square"/>
   </g>
   <g id="patch_94">
    <path d="M 921.170625 327.878125 
L 921.170625 22.318125 
" style="fill: none; stroke: #cbd5e1; stroke-width: 0.8; stroke-linejoin: miter; stroke-linecap: square"/>
   </g>
   <g id="patch_95">
    <path d="M 34.240625 327.878125 
L 921.170625 327.878125 
" style="fill: none; stroke: #cbd5e1; stroke-width: 0.8; stroke-linejoin: miter; stroke-linecap: square"/>
   </g>
   <g id="patch_96">
    <path d="M 34.240625 22.318125 
L 921.170625 22.318125 
" style="fill: none; stroke: #cbd5e1; stroke-width: 0.8; stroke-linejoin: miter; stroke-linecap: square"/>
   </g>
   <g id="text_38">
    <!-- Role Token Stack -->
    <g transform="translate(427.284063 16.318125) scale(0.12 -0.12)">
     <defs>
      <path id="DejaVuSans-54" d="M -19 4666 
L 3928 4666 
L 3928 4134 
L 2272 4134 
L 2272 0 
L 1638 0 
L 1638 4134 
L -19 4134 
L -19 4666 
z
" transform="scale(0.015625)"/>
      <path id="DejaVuSans-53" d="M 3425 4513 
L 3425 3897 
Q 3066 4069 2747 4153 
Q 2428 4238 2131 4238 
Q 1616 4238 1336 4038 
Q 1056 3838 1056 3469 
Q 1056 3159 1242 3001 
Q 1428 2844 1947 2747 
L 2328 2669 
Q 3034 2534 3370 2195 
Q 3706 1856 3706 1288 
Q 3706 609 3251 259 
Q 2797 -91 1919 -91 
Q 1588 -91 1214 -16 
Q 841 59 441 206 
L 441 856 
Q 825 641 1194 531 
Q 1563 422 1919 422 
Q 2459 422 2753 634 
Q 3047 847 3047 1241 
Q 3047 1584 2836 1778 
Q 2625 1972 2144 2069 
L 1759 2144 
Q 1053 2284 737 2584 
Q 422 2884 422 3419 
Q 422 4038 858 4394 
Q 1294 4750 2059 4750 
Q 2388 4750 2728 4690 
Q 3069 4631 3425 4513 
z
" transform="scale(0.015625)"/>
      <path id="DejaVuSans-61" d="M 2194 1759 
Q 1497 1759 1228 1600 
Q 959 1441 959 1056 
Q 959 750 1161 570 
Q 1363 391 1709 391 
Q 2188 391 2477 730 
Q 2766 1069 2766 1631 
L 2766 1759 
L 2194 1759 
z
M 3341 1997 
L 3341 0 
L 2766 0 
L 2766 531 
Q 2569 213 2275 61 
Q 1981 -91 1556 -91 
Q 1019 -91 701 211 
Q 384 513 384 1019 
Q 384 1609 779 1909 
Q 1175 2209 1959 2209 
L 2766 2209 
L 2766 2266 
Q 2766 2663 2505 2880 
Q 2244 3097 1772 3097 
Q 1472 3097 1187 3025 
Q 903 2953 641 2809 
L 641 3341 
Q 956 3463 1253 3523 
Q 1550 3584 1831 3584 
Q 2591 3584 2966 3190 
Q 3341 2797 3341 1997 
z
" transform="scale(0.015625)"/>
      <path id="DejaVuSans-63" d="M 3122 3366 
L 3122 2828 
Q 2878 2963 2633 3030 
Q 2388 3097 2138 3097 
Q 1578 3097 1268 2742 
Q 959 2388 959 1747 
Q 959 1106 1268 751 
Q 1578 397 2138 397 
Q 2388 397 2633 464 
Q 2878 531 3122 666 
L 3122 134 
Q 2881 22 2623 -34 
Q 2366 -91 2075 -91 
Q 1284 -91 818 406 
Q 353 903 353 1747 
Q 353 2603 823 3093 
Q 1294 3584 2113 3584 
Q 2378 3584 2631 3529 
Q 2884 3475 3122 3366 
z
" transform="scale(0.015625)"/>
     </defs>
     <use xlink:href="#DejaVuSans-52"/>
     <use xlink:href="#DejaVuSans-6f" transform="translate(64.982422 0)"/>
     <use xlink:href="#DejaVuSans-6c" transform="translate(126.164062 0)"/>
     <use xlink:href="#DejaVuSans-65" transform="translate(153.947266 0)"/>
     <use xlink:href="#DejaVuSans-20" transform="translate(215.470703 0)"/>
     <use xlink:href="#DejaVuSans-54" transform="translate(247.257812 0)"/>
     <use xlink:href="#DejaVuSans-6f" transform="translate(291.341797 0)"/>
     <use xlink:href="#DejaVuSans-6b" transform="translate(352.523438 0)"/>
     <use xlink:href="#DejaVuSans-65" transform="translate(406.808594 0)"/>
     <use xlink:href="#DejaVuSans-6e" transform="translate(468.332031 0)"/>
     <use xlink:href="#DejaVuSans-20" transform="translate(531.710938 0)"/>
     <use xlink:href="#DejaVuSans-53" transform="translate(563.498047 0)"/>
     <use xlink:href="#DejaVuSans-74" transform="translate(626.974609 0)"/>
     <use xlink:href="#DejaVuSans-61" transform="translate(666.183594 0)"/>
     <use xlink:href="#DejaVuSans-63" transform="translate(727.462891 0)"/>
     <use xlink:href="#DejaVuSans-6b" transform="translate(782.443359 0)"/>
    </g>
   </g>
   <g id="legend_1">
    <g id="patch_97">
     <path d="M 41.240625 44.99625 
L 263.39375 44.99625 
Q 265.39375 44.99625 265.39375 42.99625 
L 265.39375 29.318125 
Q 265.39375 27.318125 263.39375 27.318125 
L 41.240625 27.318125 
Q 39.240625 27.318125 39.240625 29.318125 
L 39.240625 42.99625 
Q 39.240625 44.99625 41.240625 44.99625 
z
" style="fill: #ffffff; opacity: 0.8; stroke: #cccccc; stroke-linejoin: miter"/>
    </g>
    <g id="patch_98">
     <path d="M 43.240625 38.916562 
L 63.240625 38.916562 
L 63.240625 31.916562 
L 43.240625 31.916562 
z
" style="fill: #3867d6"/>
    </g>
    <g id="text_39">
     <!-- Athena -->
     <g transform="translate(71.240625 38.916562) scale(0.1 -0.1)">
      <defs>
       <path id="DejaVuSans-41" d="M 2188 4044 
L 1331 1722 
L 3047 1722 
L 2188 4044 
z
M 1831 4666 
L 2547 4666 
L 4325 0 
L 3669 0 
L 3244 1197 
L 1141 1197 
L 716 0 
L 50 0 
L 1831 4666 
z
" transform="scale(0.015625)"/>
       <path id="DejaVuSans-68" d="M 3513 2113 
L 3513 0 
L 2938 0 
L 2938 2094 
Q 2938 2591 2744 2837 
Q 2550 3084 2163 3084 
Q 1697 3084 1428 2787 
Q 1159 2491 1159 1978 
L 1159 0 
L 581 0 
L 581 4863 
L 1159 4863 
L 1159 2956 
Q 1366 3272 1645 3428 
Q 1925 3584 2291 3584 
Q 2894 3584 3203 3211 
Q 3513 2838 3513 2113 
z
" transform="scale(0.015625)"/>
      </defs>
      <use xlink:href="#DejaVuSans-41"/>
      <use xlink:href="#DejaVuSans-74" transform="translate(66.658203 0)"/>
      <use xlink:href="#DejaVuSans-68" transform="translate(105.867188 0)"/>
      <use xlink:href="#DejaVuSans-65" transform="translate(169.246094 0)"/>
      <use xlink:href="#DejaVuSans-6e" transform="translate(230.769531 0)"/>
      <use xlink:href="#DejaVuSans-61" transform="translate(294.148438 0)"/>
     </g>
    </g>
    <g id="patch_99">
     <path d="M 126.782813 38.916562 
L 146.782813 38.916562 
L 146.782813 31.916562 
L 126.782813 31.916562 
z
" style="fill: #7d4cc2"/>
    </g>
    <g id="text_40">
     <!-- Aria -->
     <g transform="translate(154.782813 38.916562) scale(0.1 -0.1)">
      <defs>
       <path id="DejaVuSans-72" d="M 2631 2963 
Q 2534 3019 2420 3045 
Q 2306 3072 2169 3072 
Q 1681 3072 1420 2755 
Q 1159 2438 1159 1844 
L 1159 0 
L 581 0 
L 581 3500 
L 1159 3500 
L 1159 2956 
Q 1341 3275 1631 3429 
Q 1922 3584 2338 3584 
Q 2397 3584 2469 3576 
Q 2541 3569 2628 3553 
L 2631 2963 
z
" transform="scale(0.015625)"/>
      </defs>
      <use xlink:href="#DejaVuSans-41"/>
      <use xlink:href="#DejaVuSans-72" transform="translate(68.408203 0)"/>
      <use xlink:href="#DejaVuSans-69" transform="translate(109.521484 0)"/>
      <use xlink:href="#DejaVuSans-61" transform="translate(137.304688 0)"/>
     </g>
    </g>
    <g id="patch_100">
     <path d="M 194.640625 38.916562 
L 214.640625 38.916562 
L 214.640625 31.916562 
L 194.640625 31.916562 
z
" style="fill: #c78100"/>
    </g>
    <g id="text_41">
     <!-- Artemis -->
     <g transform="translate(222.640625 38.916562) scale(0.1 -0.1)">
      <use xlink:href="#DejaVuSans-41"/>
      <use xlink:href="#DejaVuSans-72" transform="translate(68.408203 0)"/>
      <use xlink:href="#DejaVuSans-74" transform="translate(109.521484 0)"/>
      <use xlink:href="#DejaVuSans-65" transform="translate(148.730469 0)"/>
      <use xlink:href="#DejaVuSans-6d" transform="translate(210.253906 0)"/>
      <use xlink:href="#DejaVuSans-69" transform="translate(307.666016 0)"/>
      <use xlink:href="#DejaVuSans-73" transform="translate(335.449219 0)"/>
     </g>
    </g>
   </g>
  </g>
 </g>
 <defs>
  <clipPath id="p5bf378a3e8">
   <rect x="34.240625" y="22.318125" width="886.93" height="305.56"/>
  </clipPath>
 </defs>
</svg>
