<svg xmlns="http://www.w3.org/2000/svg" width="1180" height="420" viewBox="0 0 1180 420">
  <defs>
    <marker id="arrow" markerWidth="10" markerHeight="10" refX="8" refY="3" orient="auto" markerUnits="strokeWidth">
      <path d="M0,0 L0,6 L9,3 z" fill="#334155" />
    </marker>
    <style>
      .box { fill: #f8fafc; stroke: #334155; stroke-width: 1.4; rx: 8; }
      .warn { fill: #fff7ed; stroke: #c2410c; stroke-width: 1.5; rx: 8; }
      .ok { fill: #ecfdf5; stroke: #047857; stroke-width: 1.5; rx: 8; }
      .title { font: 700 17px Arial, sans-serif; fill: #0f172a; }
      .text { font: 13px Arial, sans-serif; fill: #334155; }
      .small { font: 12px Arial, sans-serif; fill: #475569; }
      .arrow { stroke: #334155; stroke-width: 1.6; fill: none; marker-end: url(#arrow); }
    </style>
  </defs>
  <text x="28" y="34" class="title">AEN April 27 Evidence Pipeline: Three-Run Comparison</text>
  <rect x="28" y="70" width="210" height="118" class="box" />
  <text x="46" y="98" class="title">Paper frozen</text>
  <text x="46" y="124" class="text">AIME 2026, 15/30 full</text>
  <text x="46" y="146" class="small">Q1-Q15: 8/15</text>
  <text x="46" y="168" class="small">1 loop, 2 peer exchanges</text>
  <rect x="28" y="230" width="210" height="118" class="box" />
  <text x="46" y="258" class="title">Paper unrestricted</text>
  <text x="46" y="284" class="text">AIME 2026, 22/30 full</text>
  <text x="46" y="306" class="small">Q1-Q15: 10/15</text>
  <text x="46" y="328" class="small">1 loop, 3 peer exchanges</text>
  <rect x="318" y="150" width="250" height="118" class="ok" />
  <text x="338" y="178" class="title">Current Apr27 outputs</text>
  <text x="338" y="204" class="text">Q1-Q5: 4/5, Q6-Q10: 3/5, Q11-Q15: 4/5</text>
  <text x="338" y="226" class="small">Combined Q1-Q15: 11/15</text>
  <text x="338" y="248" class="small">RuntimeAtBoot passed</text>
  <rect x="650" y="96" width="220" height="110" class="warn" />
  <text x="670" y="124" class="title">Regression</text>
  <text x="670" y="150" class="text">Q4: 137 vs expected 70</text>
  <text x="670" y="172" class="small">Counted factor pairs, not</text>
  <text x="670" y="192" class="small">distinct output integers</text>
  <rect x="650" y="246" width="220" height="110" class="warn" />
  <text x="670" y="274" class="title">Persistent misses</text>
  <text x="670" y="300" class="text">Q9: 6 vs 29; Q10: 54 vs 156</text>
  <text x="670" y="322" class="text">Q15: 2 vs 83</text>
  <text x="670" y="344" class="small">Closed despite weak diagnostics</text>
  <rect x="948" y="150" width="200" height="118" class="box" />
  <text x="968" y="178" class="title">Update package</text>
  <text x="968" y="204" class="text">Reports, CSVs, diagrams</text>
  <text x="968" y="226" class="small">Feature diff + data viz</text>
  <text x="968" y="248" class="small">Next-run recommendations</text>
  <path d="M238 129 C270 129, 282 185, 318 195" class="arrow" />
  <path d="M238 289 C270 289, 282 230, 318 220" class="arrow" />
  <path d="M568 190 C600 170, 618 150, 650 145" class="arrow" />
  <path d="M568 230 C600 260, 618 294, 650 304" class="arrow" />
  <path d="M870 151 C900 164, 920 184, 948 195" class="arrow" />
  <path d="M870 301 C900 284, 920 244, 948 224" class="arrow" />
</svg>
