<svg xmlns="http://www.w3.org/2000/svg" width="920" height="410" viewBox="0 0 920 410">
<style>
  text { font-family: Arial, Helvetica, sans-serif; fill: #1f2933; }
  .title { font-size: 24px; font-weight: 700; }
  .subtitle { font-size: 13px; fill: #667085; }
  .label { font-size: 12px; }
  .small { font-size: 10px; fill: #667085; }
  .num { font-size: 18px; font-weight: 700; }
</style>
<rect width="100%" height="100%" fill="#fbfaf7"/>
<text x="28" y="38" class="title" text-anchor="start" style="">Cumulative Score Trajectory</text>
<text x="28" y="60" class="subtitle" text-anchor="start" style="">A ceiling would look like a sustained climb; official flattened after Q14 and lost Q21-Q25.</text>
<line x1="80" y1="340" x2="840" y2="340" stroke="#d0d5dd" stroke-width="1"/>
<line x1="80" y1="340" x2="80" y2="100" stroke="#d0d5dd" stroke-width="1"/>
<line x1="80" y1="340.0" x2="840" y2="340.0" stroke="#e5e7eb" stroke-width="1"/>
<text x="68" y="344.0" class="small" text-anchor="end" style="">0</text>
<line x1="80" y1="300.0" x2="840" y2="300.0" stroke="#e5e7eb" stroke-width="1"/>
<text x="68" y="304.0" class="small" text-anchor="end" style="">5</text>
<line x1="80" y1="260.0" x2="840" y2="260.0" stroke="#e5e7eb" stroke-width="1"/>
<text x="68" y="264.0" class="small" text-anchor="end" style="">10</text>
<line x1="80" y1="220.0" x2="840" y2="220.0" stroke="#e5e7eb" stroke-width="1"/>
<text x="68" y="224.0" class="small" text-anchor="end" style="">15</text>
<line x1="80" y1="180.0" x2="840" y2="180.0" stroke="#e5e7eb" stroke-width="1"/>
<text x="68" y="184.0" class="small" text-anchor="end" style="">20</text>
<line x1="80" y1="140.0" x2="840" y2="140.0" stroke="#e5e7eb" stroke-width="1"/>
<text x="68" y="144.0" class="small" text-anchor="end" style="">25</text>
<line x1="80" y1="100.0" x2="840" y2="100.0" stroke="#e5e7eb" stroke-width="1"/>
<text x="68" y="104.0" class="small" text-anchor="end" style="">30</text>
<text x="80.0" y="365" class="small" text-anchor="middle" style="">1</text>
<text x="184.82758620689657" y="365" class="small" text-anchor="middle" style="">5</text>
<text x="315.8620689655172" y="365" class="small" text-anchor="middle" style="">10</text>
<text x="446.8965517241379" y="365" class="small" text-anchor="middle" style="">15</text>
<text x="577.9310344827586" y="365" class="small" text-anchor="middle" style="">20</text>
<text x="708.9655172413793" y="365" class="small" text-anchor="middle" style="">25</text>
<text x="840.0" y="365" class="small" text-anchor="middle" style="">30</text>
<polyline points="80.0,332.0 106.2,324.0 132.4,316.0 158.6,308.0 184.8,300.0 211.0,292.0 237.2,284.0 263.4,276.0 289.7,276.0 315.9,276.0 342.1,276.0 368.3,276.0 394.5,276.0 420.7,276.0 446.9,276.0 473.1,268.0 499.3,268.0 525.5,268.0 551.7,268.0 577.9,260.0 604.1,252.0 630.3,244.0 656.6,244.0 682.8,236.0 709.0,228.0 735.2,220.0 761.4,220.0 787.6,220.0 813.8,220.0 840.0,220.0" fill="none" stroke="#6b7280" stroke-width="3"/>
<polyline points="80.0,332.0 106.2,324.0 132.4,316.0 158.6,308.0 184.8,300.0 211.0,292.0 237.2,284.0 263.4,276.0 289.7,276.0 315.9,276.0 342.1,268.0 368.3,260.0 394.5,260.0 420.7,260.0 446.9,260.0 473.1,252.0 499.3,244.0 525.5,244.0 551.7,236.0 577.9,228.0 604.1,220.0 630.3,212.0 656.6,204.0 682.8,196.0 709.0,188.0 735.2,180.0 761.4,172.0 787.6,164.0 813.8,164.0 840.0,164.0" fill="none" stroke="#1565c0" stroke-width="3"/>
<polyline points="80.0,332.0 106.2,324.0 132.4,316.0 158.6,316.0 184.8,308.0 211.0,300.0 237.2,292.0 263.4,284.0 289.7,284.0 315.9,284.0 342.1,276.0 368.3,268.0 394.5,260.0 420.7,252.0 446.9,252.0 473.1,244.0 499.3,244.0 525.5,236.0 551.7,228.0 577.9,220.0 604.1,220.0 630.3,212.0 656.6,204.0 682.8,196.0 709.0,188.0 735.2,180.0 761.4,180.0 787.6,172.0 813.8,172.0 840.0,172.0" fill="none" stroke="#6a1b9a" stroke-width="3"/>
<polyline points="80.0,332.0 106.2,324.0 132.4,316.0 158.6,308.0 184.8,300.0 211.0,292.0 237.2,292.0 263.4,284.0 289.7,284.0 315.9,284.0 342.1,284.0 368.3,276.0 394.5,268.0 420.7,260.0 446.9,260.0 473.1,252.0 499.3,252.0 525.5,252.0 551.7,244.0 577.9,236.0 604.1,236.0 630.3,228.0 656.6,228.0 682.8,228.0 709.0,220.0 735.2,212.0 761.4,204.0 787.6,204.0 813.8,204.0 840.0,204.0" fill="none" stroke="#e65100" stroke-width="3"/>
<rect x="640" y="90" width="12" height="12" rx="3" fill="#6b7280" stroke="none" opacity="1"/>
<text x="658" y="100" class="small" text-anchor="start" style="">Frozen</text>
<rect x="640" y="110" width="12" height="12" rx="3" fill="#1565c0" stroke="none" opacity="1"/>
<text x="658" y="120" class="small" text-anchor="start" style="">Unrestricted</text>
<rect x="640" y="130" width="12" height="12" rx="3" fill="#6a1b9a" stroke="none" opacity="1"/>
<text x="658" y="140" class="small" text-anchor="start" style="">Current</text>
<rect x="640" y="150" width="12" height="12" rx="3" fill="#e65100" stroke="none" opacity="1"/>
<text x="658" y="160" class="small" text-anchor="start" style="">Official</text>
</svg>