<svg xmlns="http://www.w3.org/2000/svg" width="1220" height="360" viewBox="0 0 1220 360">
<rect width="100%" height="100%" fill="#ffffff"/>
<text x="34.0" y="42.0" font-family="Inter,Segoe UI,Arial,sans-serif" font-size="25" font-weight="700" fill="#0f172a" text-anchor="start">Q1-Q30 Five-Full-Run Result Grid</text>
<text x="34.0" y="66.0" font-family="Inter,Segoe UI,Arial,sans-serif" font-size="13" font-weight="400" fill="#475569" text-anchor="start">Green = correct, red = missed. Numbers inside cells are submitted answers. V34 row is answer-aware replay.</text>
<text x="243.0" y="92.0" font-family="Inter,Segoe UI,Arial,sans-serif" font-size="10" font-weight="400" fill="#334155" text-anchor="middle">1</text>
<text x="274.0" y="92.0" font-family="Inter,Segoe UI,Arial,sans-serif" font-size="10" font-weight="400" fill="#334155" text-anchor="middle">2</text>
<text x="305.0" y="92.0" font-family="Inter,Segoe UI,Arial,sans-serif" font-size="10" font-weight="400" fill="#334155" text-anchor="middle">3</text>
<text x="336.0" y="92.0" font-family="Inter,Segoe UI,Arial,sans-serif" font-size="10" font-weight="400" fill="#334155" text-anchor="middle">4</text>
<text x="367.0" y="92.0" font-family="Inter,Segoe UI,Arial,sans-serif" font-size="10" font-weight="400" fill="#334155" text-anchor="middle">5</text>
<text x="398.0" y="92.0" font-family="Inter,Segoe UI,Arial,sans-serif" font-size="10" font-weight="400" fill="#334155" text-anchor="middle">6</text>
<text x="429.0" y="92.0" font-family="Inter,Segoe UI,Arial,sans-serif" font-size="10" font-weight="400" fill="#334155" text-anchor="middle">7</text>
<text x="460.0" y="92.0" font-family="Inter,Segoe UI,Arial,sans-serif" font-size="10" font-weight="400" fill="#334155" text-anchor="middle">8</text>
<text x="491.0" y="92.0" font-family="Inter,Segoe UI,Arial,sans-serif" font-size="10" font-weight="400" fill="#334155" text-anchor="middle">9</text>
<text x="522.0" y="92.0" font-family="Inter,Segoe UI,Arial,sans-serif" font-size="10" font-weight="400" fill="#334155" text-anchor="middle">10</text>
<text x="553.0" y="92.0" font-family="Inter,Segoe UI,Arial,sans-serif" font-size="10" font-weight="400" fill="#334155" text-anchor="middle">11</text>
<text x="584.0" y="92.0" font-family="Inter,Segoe UI,Arial,sans-serif" font-size="10" font-weight="400" fill="#334155" text-anchor="middle">12</text>
<text x="615.0" y="92.0" font-family="Inter,Segoe UI,Arial,sans-serif" font-size="10" font-weight="400" fill="#334155" text-anchor="middle">13</text>
<text x="646.0" y="92.0" font-family="Inter,Segoe UI,Arial,sans-serif" font-size="10" font-weight="400" fill="#334155" text-anchor="middle">14</text>
<text x="677.0" y="92.0" font-family="Inter,Segoe UI,Arial,sans-serif" font-size="10" font-weight="400" fill="#334155" text-anchor="middle">15</text>
<text x="708.0" y="92.0" font-family="Inter,Segoe UI,Arial,sans-serif" font-size="10" font-weight="400" fill="#334155" text-anchor="middle">16</text>
<text x="739.0" y="92.0" font-family="Inter,Segoe UI,Arial,sans-serif" font-size="10" font-weight="400" fill="#334155" text-anchor="middle">17</text>
<text x="770.0" y="92.0" font-family="Inter,Segoe UI,Arial,sans-serif" font-size="10" font-weight="400" fill="#334155" text-anchor="middle">18</text>
<text x="801.0" y="92.0" font-family="Inter,Segoe UI,Arial,sans-serif" font-size="10" font-weight="400" fill="#334155" text-anchor="middle">19</text>
<text x="832.0" y="92.0" font-family="Inter,Segoe UI,Arial,sans-serif" font-size="10" font-weight="400" fill="#334155" text-anchor="middle">20</text>
<text x="863.0" y="92.0" font-family="Inter,Segoe UI,Arial,sans-serif" font-size="10" font-weight="400" fill="#334155" text-anchor="middle">21</text>
<text x="894.0" y="92.0" font-family="Inter,Segoe UI,Arial,sans-serif" font-size="10" font-weight="400" fill="#334155" text-anchor="middle">22</text>
<text x="925.0" y="92.0" font-family="Inter,Segoe UI,Arial,sans-serif" font-size="10" font-weight="400" fill="#334155" text-anchor="middle">23</text>
<text x="956.0" y="92.0" font-family="Inter,Segoe UI,Arial,sans-serif" font-size="10" font-weight="400" fill="#334155" text-anchor="middle">24</text>
<text x="987.0" y="92.0" font-family="Inter,Segoe UI,Arial,sans-serif" font-size="10" font-weight="400" fill="#334155" text-anchor="middle">25</text>
<text x="1018.0" y="92.0" font-family="Inter,Segoe UI,Arial,sans-serif" font-size="10" font-weight="400" fill="#334155" text-anchor="middle">26</text>
<text x="1049.0" y="92.0" font-family="Inter,Segoe UI,Arial,sans-serif" font-size="10" font-weight="400" fill="#334155" text-anchor="middle">27</text>
<text x="1080.0" y="92.0" font-family="Inter,Segoe UI,Arial,sans-serif" font-size="10" font-weight="400" fill="#334155" text-anchor="middle">28</text>
<text x="1111.0" y="92.0" font-family="Inter,Segoe UI,Arial,sans-serif" font-size="10" font-weight="400" fill="#334155" text-anchor="middle">29</text>
<text x="1142.0" y="92.0" font-family="Inter,Segoe UI,Arial,sans-serif" font-size="10" font-weight="400" fill="#334155" text-anchor="middle">30</text>
<text x="34.0" y="122.0" font-family="Inter,Segoe UI,Arial,sans-serif" font-size="13" font-weight="600" fill="#0f172a" text-anchor="start">Frozen</text>
<rect x="230.0" y="104.0" width="26.0" height="26.0" rx="3.0" fill="#1f8f3a"/>
<text x="243.0" y="121.0" font-family="Inter,Segoe UI,Arial,sans-serif" font-size="8" font-weight="700" fill="#ffffff" text-anchor="middle">277</text>
<rect x="261.0" y="104.0" width="26.0" height="26.0" rx="3.0" fill="#1f8f3a"/>
<text x="274.0" y="121.0" font-family="Inter,Segoe UI,Arial,sans-serif" font-size="8" font-weight="700" fill="#ffffff" text-anchor="middle">62</text>
<rect x="292.0" y="104.0" width="26.0" height="26.0" rx="3.0" fill="#1f8f3a"/>
<text x="305.0" y="121.0" font-family="Inter,Segoe UI,Arial,sans-serif" font-size="8" font-weight="700" fill="#ffffff" text-anchor="middle">79</text>
<rect x="323.0" y="104.0" width="26.0" height="26.0" rx="3.0" fill="#1f8f3a"/>
<text x="336.0" y="121.0" font-family="Inter,Segoe UI,Arial,sans-serif" font-size="8" font-weight="700" fill="#ffffff" text-anchor="middle">70</text>
<rect x="354.0" y="104.0" width="26.0" height="26.0" rx="3.0" fill="#1f8f3a"/>
<text x="367.0" y="121.0" font-family="Inter,Segoe UI,Arial,sans-serif" font-size="8" font-weight="700" fill="#ffffff" text-anchor="middle">65</text>
<rect x="385.0" y="104.0" width="26.0" height="26.0" rx="3.0" fill="#1f8f3a"/>
<text x="398.0" y="121.0" font-family="Inter,Segoe UI,Arial,sans-serif" font-size="8" font-weight="700" fill="#ffffff" text-anchor="middle">441</text>
<rect x="416.0" y="104.0" width="26.0" height="26.0" rx="3.0" fill="#1f8f3a"/>
<text x="429.0" y="121.0" font-family="Inter,Segoe UI,Arial,sans-serif" font-size="8" font-weight="700" fill="#ffffff" text-anchor="middle">396</text>
<rect x="447.0" y="104.0" width="26.0" height="26.0" rx="3.0" fill="#1f8f3a"/>
<text x="460.0" y="121.0" font-family="Inter,Segoe UI,Arial,sans-serif" font-size="8" font-weight="700" fill="#ffffff" text-anchor="middle">244</text>
<rect x="478.0" y="104.0" width="26.0" height="26.0" rx="3.0" fill="#dc2626"/>
<text x="491.0" y="121.0" font-family="Inter,Segoe UI,Arial,sans-serif" font-size="8" font-weight="700" fill="#ffffff" text-anchor="middle">239</text>
<rect x="509.0" y="104.0" width="26.0" height="26.0" rx="3.0" fill="#dc2626"/>
<text x="522.0" y="121.0" font-family="Inter,Segoe UI,Arial,sans-serif" font-size="8" font-weight="700" fill="#ffffff" text-anchor="middle">195</text>
<rect x="540.0" y="104.0" width="26.0" height="26.0" rx="3.0" fill="#dc2626"/>
<text x="553.0" y="121.0" font-family="Inter,Segoe UI,Arial,sans-serif" font-size="8" font-weight="700" fill="#ffffff" text-anchor="middle">8</text>
<rect x="571.0" y="104.0" width="26.0" height="26.0" rx="3.0" fill="#dc2626"/>
<text x="584.0" y="121.0" font-family="Inter,Segoe UI,Arial,sans-serif" font-size="8" font-weight="700" fill="#ffffff" text-anchor="middle">37</text>
<rect x="602.0" y="104.0" width="26.0" height="26.0" rx="3.0" fill="#dc2626"/>
<text x="615.0" y="121.0" font-family="Inter,Segoe UI,Arial,sans-serif" font-size="8" font-weight="700" fill="#ffffff" text-anchor="middle">58</text>
<rect x="633.0" y="104.0" width="26.0" height="26.0" rx="3.0" fill="#dc2626"/>
<text x="646.0" y="121.0" font-family="Inter,Segoe UI,Arial,sans-serif" font-size="8" font-weight="700" fill="#ffffff" text-anchor="middle">382</text>
<rect x="664.0" y="104.0" width="26.0" height="26.0" rx="3.0" fill="#dc2626"/>
<text x="677.0" y="121.0" font-family="Inter,Segoe UI,Arial,sans-serif" font-size="8" font-weight="700" fill="#ffffff" text-anchor="middle">1</text>
<rect x="695.0" y="104.0" width="26.0" height="26.0" rx="3.0" fill="#1f8f3a"/>
<text x="708.0" y="121.0" font-family="Inter,Segoe UI,Arial,sans-serif" font-size="8" font-weight="700" fill="#ffffff" text-anchor="middle">178</text>
<rect x="726.0" y="104.0" width="26.0" height="26.0" rx="3.0" fill="#dc2626"/>
<text x="739.0" y="121.0" font-family="Inter,Segoe UI,Arial,sans-serif" font-size="8" font-weight="700" fill="#ffffff" text-anchor="middle">10</text>
<rect x="757.0" y="104.0" width="26.0" height="26.0" rx="3.0" fill="#dc2626"/>
<text x="770.0" y="121.0" font-family="Inter,Segoe UI,Arial,sans-serif" font-size="8" font-weight="700" fill="#ffffff" text-anchor="middle">999</text>
<rect x="788.0" y="104.0" width="26.0" height="26.0" rx="3.0" fill="#dc2626"/>
<text x="801.0" y="121.0" font-family="Inter,Segoe UI,Arial,sans-serif" font-size="8" font-weight="700" fill="#ffffff" text-anchor="middle">271</text>
<rect x="819.0" y="104.0" width="26.0" height="26.0" rx="3.0" fill="#1f8f3a"/>
<text x="832.0" y="121.0" font-family="Inter,Segoe UI,Arial,sans-serif" font-size="8" font-weight="700" fill="#ffffff" text-anchor="middle">190</text>
<rect x="850.0" y="104.0" width="26.0" height="26.0" rx="3.0" fill="#1f8f3a"/>
<text x="863.0" y="121.0" font-family="Inter,Segoe UI,Arial,sans-serif" font-size="8" font-weight="700" fill="#ffffff" text-anchor="middle">50</text>
<rect x="881.0" y="104.0" width="26.0" height="26.0" rx="3.0" fill="#1f8f3a"/>
<text x="894.0" y="121.0" font-family="Inter,Segoe UI,Arial,sans-serif" font-size="8" font-weight="700" fill="#ffffff" text-anchor="middle">754</text>
<rect x="912.0" y="104.0" width="26.0" height="26.0" rx="3.0" fill="#dc2626"/>
<text x="925.0" y="121.0" font-family="Inter,Segoe UI,Arial,sans-serif" font-size="8" font-weight="700" fill="#ffffff" text-anchor="middle">125</text>
<rect x="943.0" y="104.0" width="26.0" height="26.0" rx="3.0" fill="#1f8f3a"/>
<text x="956.0" y="121.0" font-family="Inter,Segoe UI,Arial,sans-serif" font-size="8" font-weight="700" fill="#ffffff" text-anchor="middle">669</text>
<rect x="974.0" y="104.0" width="26.0" height="26.0" rx="3.0" fill="#1f8f3a"/>
<text x="987.0" y="121.0" font-family="Inter,Segoe UI,Arial,sans-serif" font-size="8" font-weight="700" fill="#ffffff" text-anchor="middle">850</text>
<rect x="1005.0" y="104.0" width="26.0" height="26.0" rx="3.0" fill="#1f8f3a"/>
<text x="1018.0" y="121.0" font-family="Inter,Segoe UI,Arial,sans-serif" font-size="8" font-weight="700" fill="#ffffff" text-anchor="middle">132</text>
<rect x="1036.0" y="104.0" width="26.0" height="26.0" rx="3.0" fill="#dc2626"/>
<text x="1049.0" y="121.0" font-family="Inter,Segoe UI,Arial,sans-serif" font-size="8" font-weight="700" fill="#ffffff" text-anchor="middle">97</text>
<rect x="1067.0" y="104.0" width="26.0" height="26.0" rx="3.0" fill="#dc2626"/>
<text x="1080.0" y="121.0" font-family="Inter,Segoe UI,Arial,sans-serif" font-size="7" font-weight="700" fill="#ffffff" text-anchor="middle">4040</text>
<rect x="1098.0" y="104.0" width="26.0" height="26.0" rx="3.0" fill="#dc2626"/>
<text x="1111.0" y="121.0" font-family="Inter,Segoe UI,Arial,sans-serif" font-size="8" font-weight="700" fill="#ffffff" text-anchor="middle">65</text>
<rect x="1129.0" y="104.0" width="26.0" height="26.0" rx="3.0" fill="#dc2626"/>
<text x="1142.0" y="121.0" font-family="Inter,Segoe UI,Arial,sans-serif" font-size="8" font-weight="700" fill="#ffffff" text-anchor="middle">153</text>
<text x="34.0" y="166.0" font-family="Inter,Segoe UI,Arial,sans-serif" font-size="13" font-weight="600" fill="#0f172a" text-anchor="start">Unrestricted</text>
<rect x="230.0" y="148.0" width="26.0" height="26.0" rx="3.0" fill="#1f8f3a"/>
<text x="243.0" y="165.0" font-family="Inter,Segoe UI,Arial,sans-serif" font-size="8" font-weight="700" fill="#ffffff" text-anchor="middle">277</text>
<rect x="261.0" y="148.0" width="26.0" height="26.0" rx="3.0" fill="#1f8f3a"/>
<text x="274.0" y="165.0" font-family="Inter,Segoe UI,Arial,sans-serif" font-size="8" font-weight="700" fill="#ffffff" text-anchor="middle">62</text>
<rect x="292.0" y="148.0" width="26.0" height="26.0" rx="3.0" fill="#1f8f3a"/>
<text x="305.0" y="165.0" font-family="Inter,Segoe UI,Arial,sans-serif" font-size="8" font-weight="700" fill="#ffffff" text-anchor="middle">79</text>
<rect x="323.0" y="148.0" width="26.0" height="26.0" rx="3.0" fill="#1f8f3a"/>
<text x="336.0" y="165.0" font-family="Inter,Segoe UI,Arial,sans-serif" font-size="8" font-weight="700" fill="#ffffff" text-anchor="middle">70</text>
<rect x="354.0" y="148.0" width="26.0" height="26.0" rx="3.0" fill="#1f8f3a"/>
<text x="367.0" y="165.0" font-family="Inter,Segoe UI,Arial,sans-serif" font-size="8" font-weight="700" fill="#ffffff" text-anchor="middle">65</text>
<rect x="385.0" y="148.0" width="26.0" height="26.0" rx="3.0" fill="#1f8f3a"/>
<text x="398.0" y="165.0" font-family="Inter,Segoe UI,Arial,sans-serif" font-size="8" font-weight="700" fill="#ffffff" text-anchor="middle">441</text>
<rect x="416.0" y="148.0" width="26.0" height="26.0" rx="3.0" fill="#1f8f3a"/>
<text x="429.0" y="165.0" font-family="Inter,Segoe UI,Arial,sans-serif" font-size="8" font-weight="700" fill="#ffffff" text-anchor="middle">396</text>
<rect x="447.0" y="148.0" width="26.0" height="26.0" rx="3.0" fill="#1f8f3a"/>
<text x="460.0" y="165.0" font-family="Inter,Segoe UI,Arial,sans-serif" font-size="8" font-weight="700" fill="#ffffff" text-anchor="middle">244</text>
<rect x="478.0" y="148.0" width="26.0" height="26.0" rx="3.0" fill="#dc2626"/>
<text x="491.0" y="165.0" font-family="Inter,Segoe UI,Arial,sans-serif" font-size="8" font-weight="700" fill="#ffffff" text-anchor="middle">13</text>
<rect x="509.0" y="148.0" width="26.0" height="26.0" rx="3.0" fill="#dc2626"/>
<text x="522.0" y="165.0" font-family="Inter,Segoe UI,Arial,sans-serif" font-size="8" font-weight="700" fill="#ffffff" text-anchor="middle">134</text>
<rect x="540.0" y="148.0" width="26.0" height="26.0" rx="3.0" fill="#1f8f3a"/>
<text x="553.0" y="165.0" font-family="Inter,Segoe UI,Arial,sans-serif" font-size="8" font-weight="700" fill="#ffffff" text-anchor="middle">896</text>
<rect x="571.0" y="148.0" width="26.0" height="26.0" rx="3.0" fill="#1f8f3a"/>
<text x="584.0" y="165.0" font-family="Inter,Segoe UI,Arial,sans-serif" font-size="8" font-weight="700" fill="#ffffff" text-anchor="middle">161</text>
<rect x="602.0" y="148.0" width="26.0" height="26.0" rx="3.0" fill="#dc2626"/>
<text x="615.0" y="165.0" font-family="Inter,Segoe UI,Arial,sans-serif" font-size="8" font-weight="700" fill="#ffffff" text-anchor="middle">79</text>
<rect x="633.0" y="148.0" width="26.0" height="26.0" rx="3.0" fill="#dc2626"/>
<text x="646.0" y="165.0" font-family="Inter,Segoe UI,Arial,sans-serif" font-size="8" font-weight="700" fill="#ffffff" text-anchor="middle">676</text>
<rect x="664.0" y="148.0" width="26.0" height="26.0" rx="3.0" fill="#dc2626"/>
<text x="677.0" y="165.0" font-family="Inter,Segoe UI,Arial,sans-serif" font-size="8" font-weight="700" fill="#ffffff" text-anchor="middle">2</text>
<rect x="695.0" y="148.0" width="26.0" height="26.0" rx="3.0" fill="#1f8f3a"/>
<text x="708.0" y="165.0" font-family="Inter,Segoe UI,Arial,sans-serif" font-size="8" font-weight="700" fill="#ffffff" text-anchor="middle">178</text>
<rect x="726.0" y="148.0" width="26.0" height="26.0" rx="3.0" fill="#1f8f3a"/>
<text x="739.0" y="165.0" font-family="Inter,Segoe UI,Arial,sans-serif" font-size="8" font-weight="700" fill="#ffffff" text-anchor="middle">243</text>
<rect x="757.0" y="148.0" width="26.0" height="26.0" rx="3.0" fill="#dc2626"/>
<text x="770.0" y="165.0" font-family="Inter,Segoe UI,Arial,sans-serif" font-size="8" font-weight="700" fill="#ffffff" text-anchor="middle">997</text>
<rect x="788.0" y="148.0" width="26.0" height="26.0" rx="3.0" fill="#1f8f3a"/>
<text x="801.0" y="165.0" font-family="Inter,Segoe UI,Arial,sans-serif" font-size="8" font-weight="700" fill="#ffffff" text-anchor="middle">279</text>
<rect x="819.0" y="148.0" width="26.0" height="26.0" rx="3.0" fill="#1f8f3a"/>
<text x="832.0" y="165.0" font-family="Inter,Segoe UI,Arial,sans-serif" font-size="8" font-weight="700" fill="#ffffff" text-anchor="middle">190</text>
<rect x="850.0" y="148.0" width="26.0" height="26.0" rx="3.0" fill="#1f8f3a"/>
<text x="863.0" y="165.0" font-family="Inter,Segoe UI,Arial,sans-serif" font-size="8" font-weight="700" fill="#ffffff" text-anchor="middle">50</text>
<rect x="881.0" y="148.0" width="26.0" height="26.0" rx="3.0" fill="#1f8f3a"/>
<text x="894.0" y="165.0" font-family="Inter,Segoe UI,Arial,sans-serif" font-size="8" font-weight="700" fill="#ffffff" text-anchor="middle">754</text>
<rect x="912.0" y="148.0" width="26.0" height="26.0" rx="3.0" fill="#1f8f3a"/>
<text x="925.0" y="165.0" font-family="Inter,Segoe UI,Arial,sans-serif" font-size="8" font-weight="700" fill="#ffffff" text-anchor="middle">245</text>
<rect x="943.0" y="148.0" width="26.0" height="26.0" rx="3.0" fill="#1f8f3a"/>
<text x="956.0" y="165.0" font-family="Inter,Segoe UI,Arial,sans-serif" font-size="8" font-weight="700" fill="#ffffff" text-anchor="middle">669</text>
<rect x="974.0" y="148.0" width="26.0" height="26.0" rx="3.0" fill="#1f8f3a"/>
<text x="987.0" y="165.0" font-family="Inter,Segoe UI,Arial,sans-serif" font-size="8" font-weight="700" fill="#ffffff" text-anchor="middle">850</text>
<rect x="1005.0" y="148.0" width="26.0" height="26.0" rx="3.0" fill="#1f8f3a"/>
<text x="1018.0" y="165.0" font-family="Inter,Segoe UI,Arial,sans-serif" font-size="8" font-weight="700" fill="#ffffff" text-anchor="middle">132</text>
<rect x="1036.0" y="148.0" width="26.0" height="26.0" rx="3.0" fill="#1f8f3a"/>
<text x="1049.0" y="165.0" font-family="Inter,Segoe UI,Arial,sans-serif" font-size="8" font-weight="700" fill="#ffffff" text-anchor="middle">223</text>
<rect x="1067.0" y="148.0" width="26.0" height="26.0" rx="3.0" fill="#1f8f3a"/>
<text x="1080.0" y="165.0" font-family="Inter,Segoe UI,Arial,sans-serif" font-size="8" font-weight="700" fill="#ffffff" text-anchor="middle">107</text>
<rect x="1098.0" y="148.0" width="26.0" height="26.0" rx="3.0" fill="#dc2626"/>
<text x="1111.0" y="165.0" font-family="Inter,Segoe UI,Arial,sans-serif" font-size="8" font-weight="700" fill="#ffffff" text-anchor="middle">34</text>
<rect x="1129.0" y="148.0" width="26.0" height="26.0" rx="3.0" fill="#dc2626"/>
<text x="1142.0" y="165.0" font-family="Inter,Segoe UI,Arial,sans-serif" font-size="8" font-weight="700" fill="#ffffff" text-anchor="middle">367</text>
<text x="34.0" y="210.0" font-family="Inter,Segoe UI,Arial,sans-serif" font-size="13" font-weight="600" fill="#0f172a" text-anchor="start">Apr27 benchmark</text>
<rect x="230.0" y="192.0" width="26.0" height="26.0" rx="3.0" fill="#1f8f3a"/>
<text x="243.0" y="209.0" font-family="Inter,Segoe UI,Arial,sans-serif" font-size="8" font-weight="700" fill="#ffffff" text-anchor="middle">277</text>
<rect x="261.0" y="192.0" width="26.0" height="26.0" rx="3.0" fill="#1f8f3a"/>
<text x="274.0" y="209.0" font-family="Inter,Segoe UI,Arial,sans-serif" font-size="8" font-weight="700" fill="#ffffff" text-anchor="middle">62</text>
<rect x="292.0" y="192.0" width="26.0" height="26.0" rx="3.0" fill="#1f8f3a"/>
<text x="305.0" y="209.0" font-family="Inter,Segoe UI,Arial,sans-serif" font-size="8" font-weight="700" fill="#ffffff" text-anchor="middle">79</text>
<rect x="323.0" y="192.0" width="26.0" height="26.0" rx="3.0" fill="#dc2626"/>
<text x="336.0" y="209.0" font-family="Inter,Segoe UI,Arial,sans-serif" font-size="8" font-weight="700" fill="#ffffff" text-anchor="middle">137</text>
<rect x="354.0" y="192.0" width="26.0" height="26.0" rx="3.0" fill="#1f8f3a"/>
<text x="367.0" y="209.0" font-family="Inter,Segoe UI,Arial,sans-serif" font-size="8" font-weight="700" fill="#ffffff" text-anchor="middle">65</text>
<rect x="385.0" y="192.0" width="26.0" height="26.0" rx="3.0" fill="#1f8f3a"/>
<text x="398.0" y="209.0" font-family="Inter,Segoe UI,Arial,sans-serif" font-size="8" font-weight="700" fill="#ffffff" text-anchor="middle">441</text>
<rect x="416.0" y="192.0" width="26.0" height="26.0" rx="3.0" fill="#1f8f3a"/>
<text x="429.0" y="209.0" font-family="Inter,Segoe UI,Arial,sans-serif" font-size="8" font-weight="700" fill="#ffffff" text-anchor="middle">396</text>
<rect x="447.0" y="192.0" width="26.0" height="26.0" rx="3.0" fill="#1f8f3a"/>
<text x="460.0" y="209.0" font-family="Inter,Segoe UI,Arial,sans-serif" font-size="8" font-weight="700" fill="#ffffff" text-anchor="middle">244</text>
<rect x="478.0" y="192.0" width="26.0" height="26.0" rx="3.0" fill="#dc2626"/>
<text x="491.0" y="209.0" font-family="Inter,Segoe UI,Arial,sans-serif" font-size="8" font-weight="700" fill="#ffffff" text-anchor="middle">6</text>
<rect x="509.0" y="192.0" width="26.0" height="26.0" rx="3.0" fill="#dc2626"/>
<text x="522.0" y="209.0" font-family="Inter,Segoe UI,Arial,sans-serif" font-size="8" font-weight="700" fill="#ffffff" text-anchor="middle">54</text>
<rect x="540.0" y="192.0" width="26.0" height="26.0" rx="3.0" fill="#1f8f3a"/>
<text x="553.0" y="209.0" font-family="Inter,Segoe UI,Arial,sans-serif" font-size="8" font-weight="700" fill="#ffffff" text-anchor="middle">896</text>
<rect x="571.0" y="192.0" width="26.0" height="26.0" rx="3.0" fill="#1f8f3a"/>
<text x="584.0" y="209.0" font-family="Inter,Segoe UI,Arial,sans-serif" font-size="8" font-weight="700" fill="#ffffff" text-anchor="middle">161</text>
<rect x="602.0" y="192.0" width="26.0" height="26.0" rx="3.0" fill="#1f8f3a"/>
<text x="615.0" y="209.0" font-family="Inter,Segoe UI,Arial,sans-serif" font-size="8" font-weight="700" fill="#ffffff" text-anchor="middle">39</text>
<rect x="633.0" y="192.0" width="26.0" height="26.0" rx="3.0" fill="#1f8f3a"/>
<text x="646.0" y="209.0" font-family="Inter,Segoe UI,Arial,sans-serif" font-size="8" font-weight="700" fill="#ffffff" text-anchor="middle">681</text>
<rect x="664.0" y="192.0" width="26.0" height="26.0" rx="3.0" fill="#dc2626"/>
<text x="677.0" y="209.0" font-family="Inter,Segoe UI,Arial,sans-serif" font-size="8" font-weight="700" fill="#ffffff" text-anchor="middle">2</text>
<rect x="695.0" y="192.0" width="26.0" height="26.0" rx="3.0" fill="#1f8f3a"/>
<text x="708.0" y="209.0" font-family="Inter,Segoe UI,Arial,sans-serif" font-size="8" font-weight="700" fill="#ffffff" text-anchor="middle">178</text>
<rect x="726.0" y="192.0" width="26.0" height="26.0" rx="3.0" fill="#dc2626"/>
<text x="739.0" y="209.0" font-family="Inter,Segoe UI,Arial,sans-serif" font-size="8" font-weight="700" fill="#ffffff" text-anchor="middle">198</text>
<rect x="757.0" y="192.0" width="26.0" height="26.0" rx="3.0" fill="#1f8f3a"/>
<text x="770.0" y="209.0" font-family="Inter,Segoe UI,Arial,sans-serif" font-size="8" font-weight="700" fill="#ffffff" text-anchor="middle">503</text>
<rect x="788.0" y="192.0" width="26.0" height="26.0" rx="3.0" fill="#1f8f3a"/>
<text x="801.0" y="209.0" font-family="Inter,Segoe UI,Arial,sans-serif" font-size="8" font-weight="700" fill="#ffffff" text-anchor="middle">279</text>
<rect x="819.0" y="192.0" width="26.0" height="26.0" rx="3.0" fill="#1f8f3a"/>
<text x="832.0" y="209.0" font-family="Inter,Segoe UI,Arial,sans-serif" font-size="8" font-weight="700" fill="#ffffff" text-anchor="middle">190</text>
<rect x="850.0" y="192.0" width="26.0" height="26.0" rx="3.0" fill="#dc2626"/>
<text x="863.0" y="209.0" font-family="Inter,Segoe UI,Arial,sans-serif" font-size="8" font-weight="700" fill="#ffffff" text-anchor="middle">37</text>
<rect x="881.0" y="192.0" width="26.0" height="26.0" rx="3.0" fill="#1f8f3a"/>
<text x="894.0" y="209.0" font-family="Inter,Segoe UI,Arial,sans-serif" font-size="8" font-weight="700" fill="#ffffff" text-anchor="middle">754</text>
<rect x="912.0" y="192.0" width="26.0" height="26.0" rx="3.0" fill="#1f8f3a"/>
<text x="925.0" y="209.0" font-family="Inter,Segoe UI,Arial,sans-serif" font-size="8" font-weight="700" fill="#ffffff" text-anchor="middle">245</text>
<rect x="943.0" y="192.0" width="26.0" height="26.0" rx="3.0" fill="#1f8f3a"/>
<text x="956.0" y="209.0" font-family="Inter,Segoe UI,Arial,sans-serif" font-size="8" font-weight="700" fill="#ffffff" text-anchor="middle">669</text>
<rect x="974.0" y="192.0" width="26.0" height="26.0" rx="3.0" fill="#1f8f3a"/>
<text x="987.0" y="209.0" font-family="Inter,Segoe UI,Arial,sans-serif" font-size="8" font-weight="700" fill="#ffffff" text-anchor="middle">850</text>
<rect x="1005.0" y="192.0" width="26.0" height="26.0" rx="3.0" fill="#1f8f3a"/>
<text x="1018.0" y="209.0" font-family="Inter,Segoe UI,Arial,sans-serif" font-size="8" font-weight="700" fill="#ffffff" text-anchor="middle">132</text>
<rect x="1036.0" y="192.0" width="26.0" height="26.0" rx="3.0" fill="#dc2626"/>
<text x="1049.0" y="209.0" font-family="Inter,Segoe UI,Arial,sans-serif" font-size="8" font-weight="700" fill="#ffffff" text-anchor="middle">67</text>
<rect x="1067.0" y="192.0" width="26.0" height="26.0" rx="3.0" fill="#1f8f3a"/>
<text x="1080.0" y="209.0" font-family="Inter,Segoe UI,Arial,sans-serif" font-size="8" font-weight="700" fill="#ffffff" text-anchor="middle">107</text>
<rect x="1098.0" y="192.0" width="26.0" height="26.0" rx="3.0" fill="#dc2626"/>
<text x="1111.0" y="209.0" font-family="Inter,Segoe UI,Arial,sans-serif" font-size="8" font-weight="700" fill="#ffffff" text-anchor="middle">8</text>
<rect x="1129.0" y="192.0" width="26.0" height="26.0" rx="3.0" fill="#dc2626"/>
<text x="1142.0" y="209.0" font-family="Inter,Segoe UI,Arial,sans-serif" font-size="8" font-weight="700" fill="#ffffff" text-anchor="middle">70</text>
<text x="34.0" y="254.0" font-family="Inter,Segoe UI,Arial,sans-serif" font-size="13" font-weight="600" fill="#0f172a" text-anchor="start">Apr28 RAB v33</text>
<rect x="230.0" y="236.0" width="26.0" height="26.0" rx="3.0" fill="#1f8f3a"/>
<text x="243.0" y="253.0" font-family="Inter,Segoe UI,Arial,sans-serif" font-size="8" font-weight="700" fill="#ffffff" text-anchor="middle">277</text>
<rect x="261.0" y="236.0" width="26.0" height="26.0" rx="3.0" fill="#1f8f3a"/>
<text x="274.0" y="253.0" font-family="Inter,Segoe UI,Arial,sans-serif" font-size="8" font-weight="700" fill="#ffffff" text-anchor="middle">62</text>
<rect x="292.0" y="236.0" width="26.0" height="26.0" rx="3.0" fill="#1f8f3a"/>
<text x="305.0" y="253.0" font-family="Inter,Segoe UI,Arial,sans-serif" font-size="8" font-weight="700" fill="#ffffff" text-anchor="middle">79</text>
<rect x="323.0" y="236.0" width="26.0" height="26.0" rx="3.0" fill="#1f8f3a"/>
<text x="336.0" y="253.0" font-family="Inter,Segoe UI,Arial,sans-serif" font-size="8" font-weight="700" fill="#ffffff" text-anchor="middle">70</text>
<rect x="354.0" y="236.0" width="26.0" height="26.0" rx="3.0" fill="#1f8f3a"/>
<text x="367.0" y="253.0" font-family="Inter,Segoe UI,Arial,sans-serif" font-size="8" font-weight="700" fill="#ffffff" text-anchor="middle">65</text>
<rect x="385.0" y="236.0" width="26.0" height="26.0" rx="3.0" fill="#1f8f3a"/>
<text x="398.0" y="253.0" font-family="Inter,Segoe UI,Arial,sans-serif" font-size="8" font-weight="700" fill="#ffffff" text-anchor="middle">441</text>
<rect x="416.0" y="236.0" width="26.0" height="26.0" rx="3.0" fill="#dc2626"/>
<text x="429.0" y="253.0" font-family="Inter,Segoe UI,Arial,sans-serif" font-size="8" font-weight="700" fill="#ffffff" text-anchor="middle">341</text>
<rect x="447.0" y="236.0" width="26.0" height="26.0" rx="3.0" fill="#1f8f3a"/>
<text x="460.0" y="253.0" font-family="Inter,Segoe UI,Arial,sans-serif" font-size="8" font-weight="700" fill="#ffffff" text-anchor="middle">244</text>
<rect x="478.0" y="236.0" width="26.0" height="26.0" rx="3.0" fill="#dc2626"/>
<text x="491.0" y="253.0" font-family="Inter,Segoe UI,Arial,sans-serif" font-size="7" font-weight="700" fill="#ffffff" text-anchor="middle">4133</text>
<rect x="509.0" y="236.0" width="26.0" height="26.0" rx="3.0" fill="#dc2626"/>
<text x="522.0" y="253.0" font-family="Inter,Segoe UI,Arial,sans-serif" font-size="8" font-weight="700" fill="#ffffff" text-anchor="middle">133</text>
<rect x="540.0" y="236.0" width="26.0" height="26.0" rx="3.0" fill="#dc2626"/>
<text x="553.0" y="253.0" font-family="Inter,Segoe UI,Arial,sans-serif" font-size="8" font-weight="700" fill="#ffffff" text-anchor="middle">584</text>
<rect x="571.0" y="236.0" width="26.0" height="26.0" rx="3.0" fill="#1f8f3a"/>
<text x="584.0" y="253.0" font-family="Inter,Segoe UI,Arial,sans-serif" font-size="8" font-weight="700" fill="#ffffff" text-anchor="middle">161</text>
<rect x="602.0" y="236.0" width="26.0" height="26.0" rx="3.0" fill="#1f8f3a"/>
<text x="615.0" y="253.0" font-family="Inter,Segoe UI,Arial,sans-serif" font-size="8" font-weight="700" fill="#ffffff" text-anchor="middle">39</text>
<rect x="633.0" y="236.0" width="26.0" height="26.0" rx="3.0" fill="#1f8f3a"/>
<text x="646.0" y="253.0" font-family="Inter,Segoe UI,Arial,sans-serif" font-size="8" font-weight="700" fill="#ffffff" text-anchor="middle">681</text>
<rect x="664.0" y="236.0" width="26.0" height="26.0" rx="3.0" fill="#dc2626"/>
<text x="677.0" y="253.0" font-family="Inter,Segoe UI,Arial,sans-serif" font-size="8" font-weight="700" fill="#ffffff" text-anchor="middle">1</text>
<rect x="695.0" y="236.0" width="26.0" height="26.0" rx="3.0" fill="#1f8f3a"/>
<text x="708.0" y="253.0" font-family="Inter,Segoe UI,Arial,sans-serif" font-size="8" font-weight="700" fill="#ffffff" text-anchor="middle">178</text>
<rect x="726.0" y="236.0" width="26.0" height="26.0" rx="3.0" fill="#dc2626"/>
<text x="739.0" y="253.0" font-family="Inter,Segoe UI,Arial,sans-serif" font-size="8" font-weight="700" fill="#ffffff" text-anchor="middle">69</text>
<rect x="757.0" y="236.0" width="26.0" height="26.0" rx="3.0" fill="#dc2626"/>
<text x="770.0" y="253.0" font-family="Inter,Segoe UI,Arial,sans-serif" font-size="8" font-weight="700" fill="#ffffff" text-anchor="middle">505</text>
<rect x="788.0" y="236.0" width="26.0" height="26.0" rx="3.0" fill="#1f8f3a"/>
<text x="801.0" y="253.0" font-family="Inter,Segoe UI,Arial,sans-serif" font-size="8" font-weight="700" fill="#ffffff" text-anchor="middle">279</text>
<rect x="819.0" y="236.0" width="26.0" height="26.0" rx="3.0" fill="#1f8f3a"/>
<text x="832.0" y="253.0" font-family="Inter,Segoe UI,Arial,sans-serif" font-size="8" font-weight="700" fill="#ffffff" text-anchor="middle">190</text>
<rect x="850.0" y="236.0" width="26.0" height="26.0" rx="3.0" fill="#dc2626"/>
<text x="863.0" y="253.0" font-family="Inter,Segoe UI,Arial,sans-serif" font-size="8" font-weight="700" fill="#ffffff" text-anchor="middle">18</text>
<rect x="881.0" y="236.0" width="26.0" height="26.0" rx="3.0" fill="#1f8f3a"/>
<text x="894.0" y="253.0" font-family="Inter,Segoe UI,Arial,sans-serif" font-size="8" font-weight="700" fill="#ffffff" text-anchor="middle">754</text>
<rect x="912.0" y="236.0" width="26.0" height="26.0" rx="3.0" fill="#dc2626"/>
<text x="925.0" y="253.0" font-family="Inter,Segoe UI,Arial,sans-serif" font-size="8" font-weight="700" fill="#ffffff" text-anchor="middle">125</text>
<rect x="943.0" y="236.0" width="26.0" height="26.0" rx="3.0" fill="#dc2626"/>
<text x="956.0" y="253.0" font-family="Inter,Segoe UI,Arial,sans-serif" font-size="8" font-weight="700" fill="#ffffff" text-anchor="middle">558</text>
<rect x="974.0" y="236.0" width="26.0" height="26.0" rx="3.0" fill="#1f8f3a"/>
<text x="987.0" y="253.0" font-family="Inter,Segoe UI,Arial,sans-serif" font-size="8" font-weight="700" fill="#ffffff" text-anchor="middle">850</text>
<rect x="1005.0" y="236.0" width="26.0" height="26.0" rx="3.0" fill="#1f8f3a"/>
<text x="1018.0" y="253.0" font-family="Inter,Segoe UI,Arial,sans-serif" font-size="8" font-weight="700" fill="#ffffff" text-anchor="middle">132</text>
<rect x="1036.0" y="236.0" width="26.0" height="26.0" rx="3.0" fill="#1f8f3a"/>
<text x="1049.0" y="253.0" font-family="Inter,Segoe UI,Arial,sans-serif" font-size="8" font-weight="700" fill="#ffffff" text-anchor="middle">223</text>
<rect x="1067.0" y="236.0" width="26.0" height="26.0" rx="3.0" fill="#dc2626"/>
<text x="1080.0" y="253.0" font-family="Inter,Segoe UI,Arial,sans-serif" font-size="8" font-weight="700" fill="#ffffff" text-anchor="middle">12</text>
<rect x="1098.0" y="236.0" width="26.0" height="26.0" rx="3.0" fill="#dc2626"/>
<text x="1111.0" y="253.0" font-family="Inter,Segoe UI,Arial,sans-serif" font-size="8" font-weight="700" fill="#ffffff" text-anchor="middle">5</text>
<rect x="1129.0" y="236.0" width="26.0" height="26.0" rx="3.0" fill="#dc2626"/>
<text x="1142.0" y="253.0" font-family="Inter,Segoe UI,Arial,sans-serif" font-size="8" font-weight="700" fill="#ffffff" text-anchor="middle">364</text>
<text x="34.0" y="298.0" font-family="Inter,Segoe UI,Arial,sans-serif" font-size="13" font-weight="600" fill="#0f172a" text-anchor="start">V34 answer-aware</text>
<rect x="230.0" y="280.0" width="26.0" height="26.0" rx="3.0" fill="#1f8f3a"/>
<text x="243.0" y="297.0" font-family="Inter,Segoe UI,Arial,sans-serif" font-size="8" font-weight="700" fill="#ffffff" text-anchor="middle">277</text>
<rect x="261.0" y="280.0" width="26.0" height="26.0" rx="3.0" fill="#1f8f3a"/>
<text x="274.0" y="297.0" font-family="Inter,Segoe UI,Arial,sans-serif" font-size="8" font-weight="700" fill="#ffffff" text-anchor="middle">62</text>
<rect x="292.0" y="280.0" width="26.0" height="26.0" rx="3.0" fill="#1f8f3a"/>
<text x="305.0" y="297.0" font-family="Inter,Segoe UI,Arial,sans-serif" font-size="8" font-weight="700" fill="#ffffff" text-anchor="middle">79</text>
<rect x="323.0" y="280.0" width="26.0" height="26.0" rx="3.0" fill="#dc2626"/>
<text x="336.0" y="297.0" font-family="Inter,Segoe UI,Arial,sans-serif" font-size="8" font-weight="700" fill="#ffffff" text-anchor="middle">137</text>
<rect x="354.0" y="280.0" width="26.0" height="26.0" rx="3.0" fill="#1f8f3a"/>
<text x="367.0" y="297.0" font-family="Inter,Segoe UI,Arial,sans-serif" font-size="8" font-weight="700" fill="#ffffff" text-anchor="middle">65</text>
<rect x="385.0" y="280.0" width="26.0" height="26.0" rx="3.0" fill="#1f8f3a"/>
<text x="398.0" y="297.0" font-family="Inter,Segoe UI,Arial,sans-serif" font-size="8" font-weight="700" fill="#ffffff" text-anchor="middle">441</text>
<rect x="416.0" y="280.0" width="26.0" height="26.0" rx="3.0" fill="#1f8f3a"/>
<text x="429.0" y="297.0" font-family="Inter,Segoe UI,Arial,sans-serif" font-size="8" font-weight="700" fill="#ffffff" text-anchor="middle">396</text>
<rect x="447.0" y="280.0" width="26.0" height="26.0" rx="3.0" fill="#1f8f3a"/>
<text x="460.0" y="297.0" font-family="Inter,Segoe UI,Arial,sans-serif" font-size="8" font-weight="700" fill="#ffffff" text-anchor="middle">244</text>
<rect x="478.0" y="280.0" width="26.0" height="26.0" rx="3.0" fill="#1f8f3a"/>
<text x="491.0" y="297.0" font-family="Inter,Segoe UI,Arial,sans-serif" font-size="8" font-weight="700" fill="#ffffff" text-anchor="middle">29</text>
<rect x="509.0" y="280.0" width="26.0" height="26.0" rx="3.0" fill="#1f8f3a"/>
<text x="522.0" y="297.0" font-family="Inter,Segoe UI,Arial,sans-serif" font-size="8" font-weight="700" fill="#ffffff" text-anchor="middle">156</text>
<rect x="540.0" y="280.0" width="26.0" height="26.0" rx="3.0" fill="#1f8f3a"/>
<text x="553.0" y="297.0" font-family="Inter,Segoe UI,Arial,sans-serif" font-size="8" font-weight="700" fill="#ffffff" text-anchor="middle">896</text>
<rect x="571.0" y="280.0" width="26.0" height="26.0" rx="3.0" fill="#1f8f3a"/>
<text x="584.0" y="297.0" font-family="Inter,Segoe UI,Arial,sans-serif" font-size="8" font-weight="700" fill="#ffffff" text-anchor="middle">161</text>
<rect x="602.0" y="280.0" width="26.0" height="26.0" rx="3.0" fill="#1f8f3a"/>
<text x="615.0" y="297.0" font-family="Inter,Segoe UI,Arial,sans-serif" font-size="8" font-weight="700" fill="#ffffff" text-anchor="middle">39</text>
<rect x="633.0" y="280.0" width="26.0" height="26.0" rx="3.0" fill="#1f8f3a"/>
<text x="646.0" y="297.0" font-family="Inter,Segoe UI,Arial,sans-serif" font-size="8" font-weight="700" fill="#ffffff" text-anchor="middle">681</text>
<rect x="664.0" y="280.0" width="26.0" height="26.0" rx="3.0" fill="#1f8f3a"/>
<text x="677.0" y="297.0" font-family="Inter,Segoe UI,Arial,sans-serif" font-size="8" font-weight="700" fill="#ffffff" text-anchor="middle">83</text>
<rect x="695.0" y="280.0" width="26.0" height="26.0" rx="3.0" fill="#1f8f3a"/>
<text x="708.0" y="297.0" font-family="Inter,Segoe UI,Arial,sans-serif" font-size="8" font-weight="700" fill="#ffffff" text-anchor="middle">178</text>
<rect x="726.0" y="280.0" width="26.0" height="26.0" rx="3.0" fill="#1f8f3a"/>
<text x="739.0" y="297.0" font-family="Inter,Segoe UI,Arial,sans-serif" font-size="8" font-weight="700" fill="#ffffff" text-anchor="middle">243</text>
<rect x="757.0" y="280.0" width="26.0" height="26.0" rx="3.0" fill="#1f8f3a"/>
<text x="770.0" y="297.0" font-family="Inter,Segoe UI,Arial,sans-serif" font-size="8" font-weight="700" fill="#ffffff" text-anchor="middle">503</text>
<rect x="788.0" y="280.0" width="26.0" height="26.0" rx="3.0" fill="#1f8f3a"/>
<text x="801.0" y="297.0" font-family="Inter,Segoe UI,Arial,sans-serif" font-size="8" font-weight="700" fill="#ffffff" text-anchor="middle">279</text>
<rect x="819.0" y="280.0" width="26.0" height="26.0" rx="3.0" fill="#1f8f3a"/>
<text x="832.0" y="297.0" font-family="Inter,Segoe UI,Arial,sans-serif" font-size="8" font-weight="700" fill="#ffffff" text-anchor="middle">190</text>
<rect x="850.0" y="280.0" width="26.0" height="26.0" rx="3.0" fill="#1f8f3a"/>
<text x="863.0" y="297.0" font-family="Inter,Segoe UI,Arial,sans-serif" font-size="8" font-weight="700" fill="#ffffff" text-anchor="middle">50</text>
<rect x="881.0" y="280.0" width="26.0" height="26.0" rx="3.0" fill="#1f8f3a"/>
<text x="894.0" y="297.0" font-family="Inter,Segoe UI,Arial,sans-serif" font-size="8" font-weight="700" fill="#ffffff" text-anchor="middle">754</text>
<rect x="912.0" y="280.0" width="26.0" height="26.0" rx="3.0" fill="#1f8f3a"/>
<text x="925.0" y="297.0" font-family="Inter,Segoe UI,Arial,sans-serif" font-size="8" font-weight="700" fill="#ffffff" text-anchor="middle">245</text>
<rect x="943.0" y="280.0" width="26.0" height="26.0" rx="3.0" fill="#1f8f3a"/>
<text x="956.0" y="297.0" font-family="Inter,Segoe UI,Arial,sans-serif" font-size="8" font-weight="700" fill="#ffffff" text-anchor="middle">669</text>
<rect x="974.0" y="280.0" width="26.0" height="26.0" rx="3.0" fill="#1f8f3a"/>
<text x="987.0" y="297.0" font-family="Inter,Segoe UI,Arial,sans-serif" font-size="8" font-weight="700" fill="#ffffff" text-anchor="middle">850</text>
<rect x="1005.0" y="280.0" width="26.0" height="26.0" rx="3.0" fill="#1f8f3a"/>
<text x="1018.0" y="297.0" font-family="Inter,Segoe UI,Arial,sans-serif" font-size="8" font-weight="700" fill="#ffffff" text-anchor="middle">132</text>
<rect x="1036.0" y="280.0" width="26.0" height="26.0" rx="3.0" fill="#1f8f3a"/>
<text x="1049.0" y="297.0" font-family="Inter,Segoe UI,Arial,sans-serif" font-size="8" font-weight="700" fill="#ffffff" text-anchor="middle">223</text>
<rect x="1067.0" y="280.0" width="26.0" height="26.0" rx="3.0" fill="#1f8f3a"/>
<text x="1080.0" y="297.0" font-family="Inter,Segoe UI,Arial,sans-serif" font-size="8" font-weight="700" fill="#ffffff" text-anchor="middle">107</text>
<rect x="1098.0" y="280.0" width="26.0" height="26.0" rx="3.0" fill="#1f8f3a"/>
<text x="1111.0" y="297.0" font-family="Inter,Segoe UI,Arial,sans-serif" font-size="8" font-weight="700" fill="#ffffff" text-anchor="middle">157</text>
<rect x="1129.0" y="280.0" width="26.0" height="26.0" rx="3.0" fill="#1f8f3a"/>
<text x="1142.0" y="297.0" font-family="Inter,Segoe UI,Arial,sans-serif" font-size="8" font-weight="700" fill="#ffffff" text-anchor="middle">393</text>
</svg>
