<svg xmlns="http://www.w3.org/2000/svg" width="760" height="330" viewBox="0 0 760 330">
<style>
  text { font-family: Arial, Helvetica, sans-serif; fill: #1f2933; }
  .title { font-size: 24px; font-weight: 700; }
  .subtitle { font-size: 13px; fill: #667085; }
  .label { font-size: 12px; }
  .small { font-size: 10px; fill: #667085; }
  .num { font-size: 18px; font-weight: 700; }
</style>
<rect width="100%" height="100%" fill="#fbfaf7"/>
<text x="28" y="38" class="title" text-anchor="start" style="">Late Game Box Score: Q26-Q30</text>
<text x="28" y="60" class="subtitle" text-anchor="start" style="">Official fixed Q27 but still went 2/5 in Q26-Q30, same as Apr27 current.</text>
<text x="190.0" y="90" class="label" text-anchor="middle" style="">Q26</text>
<text x="300.0" y="90" class="label" text-anchor="middle" style="">Q27</text>
<text x="410.0" y="90" class="label" text-anchor="middle" style="">Q28</text>
<text x="520.0" y="90" class="label" text-anchor="middle" style="">Q29</text>
<text x="630.0" y="90" class="label" text-anchor="middle" style="">Q30</text>
<text x="28" y="125" class="label" text-anchor="start" style="">Frozen</text>
<rect x="135" y="100" width="100" height="30" rx="3" fill="#2e7d32" stroke="none" opacity="1"/>
<text x="185.0" y="120" class="label" text-anchor="middle" style="fill:white;">132</text>
<rect x="245" y="100" width="100" height="30" rx="3" fill="#c62828" stroke="none" opacity="1"/>
<text x="295.0" y="120" class="label" text-anchor="middle" style="fill:white;">97</text>
<rect x="355" y="100" width="100" height="30" rx="3" fill="#c62828" stroke="none" opacity="1"/>
<text x="405.0" y="120" class="label" text-anchor="middle" style="fill:white;">4040</text>
<rect x="465" y="100" width="100" height="30" rx="3" fill="#c62828" stroke="none" opacity="1"/>
<text x="515.0" y="120" class="label" text-anchor="middle" style="fill:white;">65</text>
<rect x="575" y="100" width="100" height="30" rx="3" fill="#c62828" stroke="none" opacity="1"/>
<text x="625.0" y="120" class="label" text-anchor="middle" style="fill:white;">153</text>
<text x="28" y="167" class="label" text-anchor="start" style="">Unrestricted</text>
<rect x="135" y="142" width="100" height="30" rx="3" fill="#2e7d32" stroke="none" opacity="1"/>
<text x="185.0" y="162" class="label" text-anchor="middle" style="fill:white;">132</text>
<rect x="245" y="142" width="100" height="30" rx="3" fill="#2e7d32" stroke="none" opacity="1"/>
<text x="295.0" y="162" class="label" text-anchor="middle" style="fill:white;">223</text>
<rect x="355" y="142" width="100" height="30" rx="3" fill="#2e7d32" stroke="none" opacity="1"/>
<text x="405.0" y="162" class="label" text-anchor="middle" style="fill:white;">107</text>
<rect x="465" y="142" width="100" height="30" rx="3" fill="#c62828" stroke="none" opacity="1"/>
<text x="515.0" y="162" class="label" text-anchor="middle" style="fill:white;">34</text>
<rect x="575" y="142" width="100" height="30" rx="3" fill="#c62828" stroke="none" opacity="1"/>
<text x="625.0" y="162" class="label" text-anchor="middle" style="fill:white;">367</text>
<text x="28" y="209" class="label" text-anchor="start" style="">Current</text>
<rect x="135" y="184" width="100" height="30" rx="3" fill="#2e7d32" stroke="none" opacity="1"/>
<text x="185.0" y="204" class="label" text-anchor="middle" style="fill:white;">132</text>
<rect x="245" y="184" width="100" height="30" rx="3" fill="#c62828" stroke="none" opacity="1"/>
<text x="295.0" y="204" class="label" text-anchor="middle" style="fill:white;">67</text>
<rect x="355" y="184" width="100" height="30" rx="3" fill="#2e7d32" stroke="none" opacity="1"/>
<text x="405.0" y="204" class="label" text-anchor="middle" style="fill:white;">107</text>
<rect x="465" y="184" width="100" height="30" rx="3" fill="#c62828" stroke="none" opacity="1"/>
<text x="515.0" y="204" class="label" text-anchor="middle" style="fill:white;">8</text>
<rect x="575" y="184" width="100" height="30" rx="3" fill="#c62828" stroke="none" opacity="1"/>
<text x="625.0" y="204" class="label" text-anchor="middle" style="fill:white;">70</text>
<text x="28" y="251" class="label" text-anchor="start" style="">Official</text>
<rect x="135" y="226" width="100" height="30" rx="3" fill="#2e7d32" stroke="none" opacity="1"/>
<text x="185.0" y="246" class="label" text-anchor="middle" style="fill:white;">132</text>
<rect x="245" y="226" width="100" height="30" rx="3" fill="#2e7d32" stroke="none" opacity="1"/>
<text x="295.0" y="246" class="label" text-anchor="middle" style="fill:white;">223</text>
<rect x="355" y="226" width="100" height="30" rx="3" fill="#c62828" stroke="none" opacity="1"/>
<text x="405.0" y="246" class="label" text-anchor="middle" style="fill:white;">12</text>
<rect x="465" y="226" width="100" height="30" rx="3" fill="#c62828" stroke="none" opacity="1"/>
<text x="515.0" y="246" class="label" text-anchor="middle" style="fill:white;">5</text>
<rect x="575" y="226" width="100" height="30" rx="3" fill="#c62828" stroke="none" opacity="1"/>
<text x="625.0" y="246" class="label" text-anchor="middle" style="fill:white;">364</text>
</svg>