<svg xmlns="http://www.w3.org/2000/svg" width="1510" height="360" viewBox="0 0 1510 360">
<rect width="100%" height="100%" fill="#101820"/>
<style>text{font-family:Segoe UI,Arial,sans-serif;fill:#f7fafc}.kicker{font-size:13px;font-weight:700;fill:#ffcc33;letter-spacing:1px}.title{font-size:34px;font-weight:800}.subtitle{font-size:14px;fill:#cbd5e1}.label{font-size:13px}.small{font-size:11px;fill:#cbd5e1}.tiny{font-size:9px;fill:#cbd5e1}.score{font-size:58px;font-weight:900}.team{font-size:19px;font-weight:800}.red{fill:#ef4444}.green{fill:#22c55e}.blue{fill:#60a5fa}.gold{fill:#fbbf24}.muted{fill:#334155}.panel{fill:#17212f;stroke:#334155;stroke-width:1}.good{fill:#1f7a4d;stroke:#58d68d}.bad{fill:#9b2c2c;stroke:#f87171}.warn{fill:#8a6d1f;stroke:#fbbf24}.grid{stroke:#334155;stroke-width:1}.axis{stroke:#94a3b8;stroke-width:1}</style>
<text x="28.0" y="38.0" class="kicker" text-anchor="start">PLAY-BY-PLAY</text>
<text x="28.0" y="72.0" class="title" text-anchor="start">Q1-Q30 Result Grid</text>
<text x="149.0" y="78.0" class="tiny" text-anchor="middle">1</text>
<text x="192.0" y="78.0" class="tiny" text-anchor="middle">2</text>
<text x="235.0" y="78.0" class="tiny" text-anchor="middle">3</text>
<text x="278.0" y="78.0" class="tiny" text-anchor="middle">4</text>
<text x="321.0" y="78.0" class="tiny" text-anchor="middle">5</text>
<text x="364.0" y="78.0" class="tiny" text-anchor="middle">6</text>
<text x="407.0" y="78.0" class="tiny" text-anchor="middle">7</text>
<text x="450.0" y="78.0" class="tiny" text-anchor="middle">8</text>
<text x="493.0" y="78.0" class="tiny" text-anchor="middle">9</text>
<text x="536.0" y="78.0" class="tiny" text-anchor="middle">10</text>
<text x="579.0" y="78.0" class="tiny" text-anchor="middle">11</text>
<text x="622.0" y="78.0" class="tiny" text-anchor="middle">12</text>
<text x="665.0" y="78.0" class="tiny" text-anchor="middle">13</text>
<text x="708.0" y="78.0" class="tiny" text-anchor="middle">14</text>
<text x="751.0" y="78.0" class="tiny" text-anchor="middle">15</text>
<text x="794.0" y="78.0" class="tiny" text-anchor="middle">16</text>
<text x="837.0" y="78.0" class="tiny" text-anchor="middle">17</text>
<text x="880.0" y="78.0" class="tiny" text-anchor="middle">18</text>
<text x="923.0" y="78.0" class="tiny" text-anchor="middle">19</text>
<text x="966.0" y="78.0" class="tiny" text-anchor="middle">20</text>
<text x="1009.0" y="78.0" class="tiny" text-anchor="middle">21</text>
<text x="1052.0" y="78.0" class="tiny" text-anchor="middle">22</text>
<text x="1095.0" y="78.0" class="tiny" text-anchor="middle">23</text>
<text x="1138.0" y="78.0" class="tiny" text-anchor="middle">24</text>
<text x="1181.0" y="78.0" class="tiny" text-anchor="middle">25</text>
<text x="1224.0" y="78.0" class="tiny" text-anchor="middle">26</text>
<text x="1267.0" y="78.0" class="tiny" text-anchor="middle">27</text>
<text x="1310.0" y="78.0" class="tiny" text-anchor="middle">28</text>
<text x="1353.0" y="78.0" class="tiny" text-anchor="middle">29</text>
<text x="1396.0" y="78.0" class="tiny" text-anchor="middle">30</text>
<text x="28.0" y="117.0" class="team" text-anchor="start">Frozen</text>
<rect x="130.0" y="92.0" width="38.0" height="42.0" rx="5" class="good"/>
<text x="149.0" y="110.0" class="tiny" text-anchor="middle">277</text>
<rect x="173.0" y="92.0" width="38.0" height="42.0" rx="5" class="good"/>
<text x="192.0" y="110.0" class="tiny" text-anchor="middle">62</text>
<rect x="216.0" y="92.0" width="38.0" height="42.0" rx="5" class="good"/>
<text x="235.0" y="110.0" class="tiny" text-anchor="middle">79</text>
<rect x="259.0" y="92.0" width="38.0" height="42.0" rx="5" class="good"/>
<text x="278.0" y="110.0" class="tiny" text-anchor="middle">70</text>
<rect x="302.0" y="92.0" width="38.0" height="42.0" rx="5" class="good"/>
<text x="321.0" y="110.0" class="tiny" text-anchor="middle">65</text>
<rect x="345.0" y="92.0" width="38.0" height="42.0" rx="5" class="good"/>
<text x="364.0" y="110.0" class="tiny" text-anchor="middle">441</text>
<rect x="388.0" y="92.0" width="38.0" height="42.0" rx="5" class="good"/>
<text x="407.0" y="110.0" class="tiny" text-anchor="middle">396</text>
<rect x="431.0" y="92.0" width="38.0" height="42.0" rx="5" class="good"/>
<text x="450.0" y="110.0" class="tiny" text-anchor="middle">244</text>
<rect x="474.0" y="92.0" width="38.0" height="42.0" rx="5" class="bad"/>
<text x="493.0" y="110.0" class="tiny" text-anchor="middle">239</text>
<text x="493.0" y="124.0" class="tiny" text-anchor="middle">/29</text>
<rect x="517.0" y="92.0" width="38.0" height="42.0" rx="5" class="bad"/>
<text x="536.0" y="110.0" class="tiny" text-anchor="middle">195</text>
<text x="536.0" y="124.0" class="tiny" text-anchor="middle">/156</text>
<rect x="560.0" y="92.0" width="38.0" height="42.0" rx="5" class="bad"/>
<text x="579.0" y="110.0" class="tiny" text-anchor="middle">8</text>
<text x="579.0" y="124.0" class="tiny" text-anchor="middle">/896</text>
<rect x="603.0" y="92.0" width="38.0" height="42.0" rx="5" class="bad"/>
<text x="622.0" y="110.0" class="tiny" text-anchor="middle">37</text>
<text x="622.0" y="124.0" class="tiny" text-anchor="middle">/161</text>
<rect x="646.0" y="92.0" width="38.0" height="42.0" rx="5" class="bad"/>
<text x="665.0" y="110.0" class="tiny" text-anchor="middle">58</text>
<text x="665.0" y="124.0" class="tiny" text-anchor="middle">/39</text>
<rect x="689.0" y="92.0" width="38.0" height="42.0" rx="5" class="bad"/>
<text x="708.0" y="110.0" class="tiny" text-anchor="middle">382</text>
<text x="708.0" y="124.0" class="tiny" text-anchor="middle">/681</text>
<rect x="732.0" y="92.0" width="38.0" height="42.0" rx="5" class="bad"/>
<text x="751.0" y="110.0" class="tiny" text-anchor="middle">1</text>
<text x="751.0" y="124.0" class="tiny" text-anchor="middle">/83</text>
<rect x="775.0" y="92.0" width="38.0" height="42.0" rx="5" class="good"/>
<text x="794.0" y="110.0" class="tiny" text-anchor="middle">178</text>
<rect x="818.0" y="92.0" width="38.0" height="42.0" rx="5" class="bad"/>
<text x="837.0" y="110.0" class="tiny" text-anchor="middle">10</text>
<text x="837.0" y="124.0" class="tiny" text-anchor="middle">/243</text>
<rect x="861.0" y="92.0" width="38.0" height="42.0" rx="5" class="bad"/>
<text x="880.0" y="110.0" class="tiny" text-anchor="middle">999</text>
<text x="880.0" y="124.0" class="tiny" text-anchor="middle">/503</text>
<rect x="904.0" y="92.0" width="38.0" height="42.0" rx="5" class="bad"/>
<text x="923.0" y="110.0" class="tiny" text-anchor="middle">271</text>
<text x="923.0" y="124.0" class="tiny" text-anchor="middle">/279</text>
<rect x="947.0" y="92.0" width="38.0" height="42.0" rx="5" class="good"/>
<text x="966.0" y="110.0" class="tiny" text-anchor="middle">190</text>
<rect x="990.0" y="92.0" width="38.0" height="42.0" rx="5" class="good"/>
<text x="1009.0" y="110.0" class="tiny" text-anchor="middle">50</text>
<rect x="1033.0" y="92.0" width="38.0" height="42.0" rx="5" class="good"/>
<text x="1052.0" y="110.0" class="tiny" text-anchor="middle">754</text>
<rect x="1076.0" y="92.0" width="38.0" height="42.0" rx="5" class="bad"/>
<text x="1095.0" y="110.0" class="tiny" text-anchor="middle">125</text>
<text x="1095.0" y="124.0" class="tiny" text-anchor="middle">/245</text>
<rect x="1119.0" y="92.0" width="38.0" height="42.0" rx="5" class="good"/>
<text x="1138.0" y="110.0" class="tiny" text-anchor="middle">669</text>
<rect x="1162.0" y="92.0" width="38.0" height="42.0" rx="5" class="good"/>
<text x="1181.0" y="110.0" class="tiny" text-anchor="middle">850</text>
<rect x="1205.0" y="92.0" width="38.0" height="42.0" rx="5" class="good"/>
<text x="1224.0" y="110.0" class="tiny" text-anchor="middle">132</text>
<rect x="1248.0" y="92.0" width="38.0" height="42.0" rx="5" class="bad"/>
<text x="1267.0" y="110.0" class="tiny" text-anchor="middle">97</text>
<text x="1267.0" y="124.0" class="tiny" text-anchor="middle">/223</text>
<rect x="1291.0" y="92.0" width="38.0" height="42.0" rx="5" class="bad"/>
<text x="1310.0" y="110.0" class="tiny" text-anchor="middle">4040</text>
<text x="1310.0" y="124.0" class="tiny" text-anchor="middle">/107</text>
<rect x="1334.0" y="92.0" width="38.0" height="42.0" rx="5" class="bad"/>
<text x="1353.0" y="110.0" class="tiny" text-anchor="middle">65</text>
<text x="1353.0" y="124.0" class="tiny" text-anchor="middle">/157</text>
<rect x="1377.0" y="92.0" width="38.0" height="42.0" rx="5" class="bad"/>
<text x="1396.0" y="110.0" class="tiny" text-anchor="middle">153</text>
<text x="1396.0" y="124.0" class="tiny" text-anchor="middle">/393</text>
<text x="28.0" y="185.0" class="team" text-anchor="start">Unrestricted</text>
<rect x="130.0" y="160.0" width="38.0" height="42.0" rx="5" class="good"/>
<text x="149.0" y="178.0" class="tiny" text-anchor="middle">277</text>
<rect x="173.0" y="160.0" width="38.0" height="42.0" rx="5" class="good"/>
<text x="192.0" y="178.0" class="tiny" text-anchor="middle">62</text>
<rect x="216.0" y="160.0" width="38.0" height="42.0" rx="5" class="good"/>
<text x="235.0" y="178.0" class="tiny" text-anchor="middle">79</text>
<rect x="259.0" y="160.0" width="38.0" height="42.0" rx="5" class="good"/>
<text x="278.0" y="178.0" class="tiny" text-anchor="middle">70</text>
<rect x="302.0" y="160.0" width="38.0" height="42.0" rx="5" class="good"/>
<text x="321.0" y="178.0" class="tiny" text-anchor="middle">65</text>
<rect x="345.0" y="160.0" width="38.0" height="42.0" rx="5" class="good"/>
<text x="364.0" y="178.0" class="tiny" text-anchor="middle">441</text>
<rect x="388.0" y="160.0" width="38.0" height="42.0" rx="5" class="good"/>
<text x="407.0" y="178.0" class="tiny" text-anchor="middle">396</text>
<rect x="431.0" y="160.0" width="38.0" height="42.0" rx="5" class="good"/>
<text x="450.0" y="178.0" class="tiny" text-anchor="middle">244</text>
<rect x="474.0" y="160.0" width="38.0" height="42.0" rx="5" class="bad"/>
<text x="493.0" y="178.0" class="tiny" text-anchor="middle">13</text>
<text x="493.0" y="192.0" class="tiny" text-anchor="middle">/29</text>
<rect x="517.0" y="160.0" width="38.0" height="42.0" rx="5" class="bad"/>
<text x="536.0" y="178.0" class="tiny" text-anchor="middle">134</text>
<text x="536.0" y="192.0" class="tiny" text-anchor="middle">/156</text>
<rect x="560.0" y="160.0" width="38.0" height="42.0" rx="5" class="good"/>
<text x="579.0" y="178.0" class="tiny" text-anchor="middle">896</text>
<rect x="603.0" y="160.0" width="38.0" height="42.0" rx="5" class="good"/>
<text x="622.0" y="178.0" class="tiny" text-anchor="middle">161</text>
<rect x="646.0" y="160.0" width="38.0" height="42.0" rx="5" class="bad"/>
<text x="665.0" y="178.0" class="tiny" text-anchor="middle">79</text>
<text x="665.0" y="192.0" class="tiny" text-anchor="middle">/39</text>
<rect x="689.0" y="160.0" width="38.0" height="42.0" rx="5" class="bad"/>
<text x="708.0" y="178.0" class="tiny" text-anchor="middle">676</text>
<text x="708.0" y="192.0" class="tiny" text-anchor="middle">/681</text>
<rect x="732.0" y="160.0" width="38.0" height="42.0" rx="5" class="bad"/>
<text x="751.0" y="178.0" class="tiny" text-anchor="middle">2</text>
<text x="751.0" y="192.0" class="tiny" text-anchor="middle">/83</text>
<rect x="775.0" y="160.0" width="38.0" height="42.0" rx="5" class="good"/>
<text x="794.0" y="178.0" class="tiny" text-anchor="middle">178</text>
<rect x="818.0" y="160.0" width="38.0" height="42.0" rx="5" class="good"/>
<text x="837.0" y="178.0" class="tiny" text-anchor="middle">243</text>
<rect x="861.0" y="160.0" width="38.0" height="42.0" rx="5" class="bad"/>
<text x="880.0" y="178.0" class="tiny" text-anchor="middle">997</text>
<text x="880.0" y="192.0" class="tiny" text-anchor="middle">/503</text>
<rect x="904.0" y="160.0" width="38.0" height="42.0" rx="5" class="good"/>
<text x="923.0" y="178.0" class="tiny" text-anchor="middle">279</text>
<rect x="947.0" y="160.0" width="38.0" height="42.0" rx="5" class="good"/>
<text x="966.0" y="178.0" class="tiny" text-anchor="middle">190</text>
<rect x="990.0" y="160.0" width="38.0" height="42.0" rx="5" class="good"/>
<text x="1009.0" y="178.0" class="tiny" text-anchor="middle">50</text>
<rect x="1033.0" y="160.0" width="38.0" height="42.0" rx="5" class="good"/>
<text x="1052.0" y="178.0" class="tiny" text-anchor="middle">754</text>
<rect x="1076.0" y="160.0" width="38.0" height="42.0" rx="5" class="good"/>
<text x="1095.0" y="178.0" class="tiny" text-anchor="middle">245</text>
<rect x="1119.0" y="160.0" width="38.0" height="42.0" rx="5" class="good"/>
<text x="1138.0" y="178.0" class="tiny" text-anchor="middle">669</text>
<rect x="1162.0" y="160.0" width="38.0" height="42.0" rx="5" class="good"/>
<text x="1181.0" y="178.0" class="tiny" text-anchor="middle">850</text>
<rect x="1205.0" y="160.0" width="38.0" height="42.0" rx="5" class="good"/>
<text x="1224.0" y="178.0" class="tiny" text-anchor="middle">132</text>
<rect x="1248.0" y="160.0" width="38.0" height="42.0" rx="5" class="good"/>
<text x="1267.0" y="178.0" class="tiny" text-anchor="middle">223</text>
<rect x="1291.0" y="160.0" width="38.0" height="42.0" rx="5" class="good"/>
<text x="1310.0" y="178.0" class="tiny" text-anchor="middle">107</text>
<rect x="1334.0" y="160.0" width="38.0" height="42.0" rx="5" class="bad"/>
<text x="1353.0" y="178.0" class="tiny" text-anchor="middle">34</text>
<text x="1353.0" y="192.0" class="tiny" text-anchor="middle">/157</text>
<rect x="1377.0" y="160.0" width="38.0" height="42.0" rx="5" class="bad"/>
<text x="1396.0" y="178.0" class="tiny" text-anchor="middle">367</text>
<text x="1396.0" y="192.0" class="tiny" text-anchor="middle">/393</text>
<text x="28.0" y="253.0" class="team" text-anchor="start">Current 0.2.3</text>
<rect x="130.0" y="228.0" width="38.0" height="42.0" rx="5" class="good"/>
<text x="149.0" y="246.0" class="tiny" text-anchor="middle">277</text>
<rect x="173.0" y="228.0" width="38.0" height="42.0" rx="5" class="good"/>
<text x="192.0" y="246.0" class="tiny" text-anchor="middle">62</text>
<rect x="216.0" y="228.0" width="38.0" height="42.0" rx="5" class="good"/>
<text x="235.0" y="246.0" class="tiny" text-anchor="middle">79</text>
<rect x="259.0" y="228.0" width="38.0" height="42.0" rx="5" class="bad"/>
<text x="278.0" y="246.0" class="tiny" text-anchor="middle">137</text>
<text x="278.0" y="260.0" class="tiny" text-anchor="middle">/70</text>
<rect x="302.0" y="228.0" width="38.0" height="42.0" rx="5" class="good"/>
<text x="321.0" y="246.0" class="tiny" text-anchor="middle">65</text>
<rect x="345.0" y="228.0" width="38.0" height="42.0" rx="5" class="good"/>
<text x="364.0" y="246.0" class="tiny" text-anchor="middle">441</text>
<rect x="388.0" y="228.0" width="38.0" height="42.0" rx="5" class="good"/>
<text x="407.0" y="246.0" class="tiny" text-anchor="middle">396</text>
<rect x="431.0" y="228.0" width="38.0" height="42.0" rx="5" class="good"/>
<text x="450.0" y="246.0" class="tiny" text-anchor="middle">244</text>
<rect x="474.0" y="228.0" width="38.0" height="42.0" rx="5" class="bad"/>
<text x="493.0" y="246.0" class="tiny" text-anchor="middle">6</text>
<text x="493.0" y="260.0" class="tiny" text-anchor="middle">/29</text>
<rect x="517.0" y="228.0" width="38.0" height="42.0" rx="5" class="bad"/>
<text x="536.0" y="246.0" class="tiny" text-anchor="middle">54</text>
<text x="536.0" y="260.0" class="tiny" text-anchor="middle">/156</text>
<rect x="560.0" y="228.0" width="38.0" height="42.0" rx="5" class="good"/>
<text x="579.0" y="246.0" class="tiny" text-anchor="middle">896</text>
<rect x="603.0" y="228.0" width="38.0" height="42.0" rx="5" class="good"/>
<text x="622.0" y="246.0" class="tiny" text-anchor="middle">161</text>
<rect x="646.0" y="228.0" width="38.0" height="42.0" rx="5" class="good"/>
<text x="665.0" y="246.0" class="tiny" text-anchor="middle">39</text>
<rect x="689.0" y="228.0" width="38.0" height="42.0" rx="5" class="good"/>
<text x="708.0" y="246.0" class="tiny" text-anchor="middle">681</text>
<rect x="732.0" y="228.0" width="38.0" height="42.0" rx="5" class="bad"/>
<text x="751.0" y="246.0" class="tiny" text-anchor="middle">2</text>
<text x="751.0" y="260.0" class="tiny" text-anchor="middle">/83</text>
<rect x="775.0" y="228.0" width="38.0" height="42.0" rx="5" class="good"/>
<text x="794.0" y="246.0" class="tiny" text-anchor="middle">178</text>
<rect x="818.0" y="228.0" width="38.0" height="42.0" rx="5" class="bad"/>
<text x="837.0" y="246.0" class="tiny" text-anchor="middle">198</text>
<text x="837.0" y="260.0" class="tiny" text-anchor="middle">/243</text>
<rect x="861.0" y="228.0" width="38.0" height="42.0" rx="5" class="good"/>
<text x="880.0" y="246.0" class="tiny" text-anchor="middle">503</text>
<rect x="904.0" y="228.0" width="38.0" height="42.0" rx="5" class="good"/>
<text x="923.0" y="246.0" class="tiny" text-anchor="middle">279</text>
<rect x="947.0" y="228.0" width="38.0" height="42.0" rx="5" class="good"/>
<text x="966.0" y="246.0" class="tiny" text-anchor="middle">190</text>
<rect x="990.0" y="228.0" width="38.0" height="42.0" rx="5" class="bad"/>
<text x="1009.0" y="246.0" class="tiny" text-anchor="middle">37</text>
<text x="1009.0" y="260.0" class="tiny" text-anchor="middle">/50</text>
<rect x="1033.0" y="228.0" width="38.0" height="42.0" rx="5" class="good"/>
<text x="1052.0" y="246.0" class="tiny" text-anchor="middle">754</text>
<rect x="1076.0" y="228.0" width="38.0" height="42.0" rx="5" class="good"/>
<text x="1095.0" y="246.0" class="tiny" text-anchor="middle">245</text>
<rect x="1119.0" y="228.0" width="38.0" height="42.0" rx="5" class="good"/>
<text x="1138.0" y="246.0" class="tiny" text-anchor="middle">669</text>
<rect x="1162.0" y="228.0" width="38.0" height="42.0" rx="5" class="good"/>
<text x="1181.0" y="246.0" class="tiny" text-anchor="middle">850</text>
<rect x="1205.0" y="228.0" width="38.0" height="42.0" rx="5" class="good"/>
<text x="1224.0" y="246.0" class="tiny" text-anchor="middle">132</text>
<rect x="1248.0" y="228.0" width="38.0" height="42.0" rx="5" class="bad"/>
<text x="1267.0" y="246.0" class="tiny" text-anchor="middle">67</text>
<text x="1267.0" y="260.0" class="tiny" text-anchor="middle">/223</text>
<rect x="1291.0" y="228.0" width="38.0" height="42.0" rx="5" class="good"/>
<text x="1310.0" y="246.0" class="tiny" text-anchor="middle">107</text>
<rect x="1334.0" y="228.0" width="38.0" height="42.0" rx="5" class="bad"/>
<text x="1353.0" y="246.0" class="tiny" text-anchor="middle">8</text>
<text x="1353.0" y="260.0" class="tiny" text-anchor="middle">/157</text>
<rect x="1377.0" y="228.0" width="38.0" height="42.0" rx="5" class="bad"/>
<text x="1396.0" y="246.0" class="tiny" text-anchor="middle">70</text>
<text x="1396.0" y="260.0" class="tiny" text-anchor="middle">/393</text>
<rect x="28.0" y="314.0" width="16.0" height="16.0" rx="6" class="good"/>
<text x="50.0" y="326.0" class="small" text-anchor="start">correct</text>
<rect x="122.0" y="314.0" width="16.0" height="16.0" rx="6" class="bad"/>
<text x="144.0" y="326.0" class="small" text-anchor="start">miss: answer/expected shown</text>
</svg>